<svg xmlns="http://www.w3.org/2000/svg" width="584" height="480" fill="none" viewBox="0 0 584 480"><circle cx="3" cy="3" r="3" fill="#2ADC65"/><circle cx="3" cy="19" r="3" fill="#2ADC65"/><circle cx="3" cy="35" r="3" fill="#2ADC65"/><circle cx="3" cy="51" r="3" fill="#2ADC65"/><circle cx="3" cy="67" r="3" fill="#2ADC65"/><circle cx="3" cy="83" r="3" fill="#2ADC65"/><circle cx="3" cy="99" r="3" fill="#2ADC65"/><circle cx="3" cy="115" r="3" fill="#2ADC65"/><circle cx="19" cy="3" r="3" fill="#2ADC65"/><circle cx="19" cy="19" r="3" fill="#2ADC65"/><circle cx="19" cy="35" r="3" fill="#2ADC65"/><circle cx="19" cy="51" r="3" fill="#2ADC65"/><circle cx="19" cy="67" r="3" fill="#2ADC65"/><circle cx="19" cy="83" r="3" fill="#2ADC65"/><circle cx="19" cy="99" r="3" fill="#2ADC65"/><circle cx="19" cy="115" r="3" fill="#2ADC65"/><circle cx="35" cy="3" r="3" fill="#2ADC65"/><circle cx="35" cy="19" r="3" fill="#2ADC65"/><circle cx="35" cy="35" r="3" fill="#2ADC65"/><circle cx="35" cy="51" r="3" fill="#2ADC65"/><circle cx="35" cy="67" r="3" fill="#2ADC65"/><circle cx="35" cy="83" r="3" fill="#2ADC65"/><circle cx="35" cy="99" r="3" fill="#2ADC65"/><circle cx="35" cy="115" r="3" fill="#2ADC65"/><circle cx="51" cy="3" r="3" fill="#2ADC65"/><circle cx="51" cy="19" r="3" fill="#2ADC65"/><circle cx="51" cy="35" r="3" fill="#2ADC65"/><circle cx="51" cy="51" r="3" fill="#2ADC65"/><circle cx="51" cy="67" r="3" fill="#2ADC65"/><circle cx="51" cy="83" r="3" fill="#2ADC65"/><circle cx="51" cy="99" r="3" fill="#2ADC65"/><circle cx="51" cy="115" r="3" fill="#2ADC65"/><circle cx="67" cy="3" r="3" fill="#2ADC65"/><circle cx="67" cy="19" r="3" fill="#2ADC65"/><circle cx="67" cy="35" r="3" fill="#2ADC65"/><circle cx="67" cy="51" r="3" fill="#2ADC65"/><circle cx="67" cy="67" r="3" fill="#2ADC65"/><circle cx="67" cy="83" r="3" fill="#2ADC65"/><circle cx="67" cy="99" r="3" fill="#2ADC65"/><circle cx="67" cy="115" r="3" fill="#2ADC65"/><circle cx="83" cy="3" r="3" fill="#2ADC65"/><circle cx="83" cy="19" r="3" fill="#2ADC65"/><circle cx="83" cy="35" r="3" fill="#2ADC65"/><circle cx="83" cy="51" r="3" fill="#2ADC65"/><circle cx="83" cy="67" r="3" fill="#2ADC65"/><circle cx="83" cy="83" r="3" fill="#2ADC65"/><circle cx="83" cy="99" r="3" fill="#2ADC65"/><circle cx="83" cy="115" r="3" fill="#2ADC65"/><circle cx="99" cy="3" r="3" fill="#2ADC65"/><circle cx="99" cy="19" r="3" fill="#2ADC65"/><circle cx="99" cy="35" r="3" fill="#2ADC65"/><circle cx="99" cy="51" r="3" fill="#2ADC65"/><circle cx="99" cy="67" r="3" fill="#2ADC65"/><circle cx="99" cy="83" r="3" fill="#2ADC65"/><circle cx="99" cy="99" r="3" fill="#2ADC65"/><circle cx="99" cy="115" r="3" fill="#2ADC65"/><circle cx="115" cy="3" r="3" fill="#2ADC65"/><circle cx="115" cy="19" r="3" fill="#2ADC65"/><circle cx="115" cy="35" r="3" fill="#2ADC65"/><circle cx="115" cy="51" r="3" fill="#2ADC65"/><circle cx="115" cy="67" r="3" fill="#2ADC65"/><circle cx="115" cy="83" r="3" fill="#2ADC65"/><circle cx="115" cy="99" r="3" fill="#2ADC65"/><circle cx="115" cy="115" r="3" fill="#2ADC65"/><rect width="326" height="265" x="258" y="215" fill="#2ADC65" opacity=".3" rx="30"/></svg>