<svg xmlns="http://www.w3.org/2000/svg" width="537" height="517" fill="none" viewBox="0 0 537 517"><path fill="#2ADC65" d="M310.417 18.8315C377.14 -32.3395 476.52 28.228 461.796 111.09L449.63 179.561C445.001 205.613 452.323 232.84 469.676 254.1L515.284 309.976C570.479 377.597 512.88 472.384 427.547 454.36L357.036 439.466C330.207 433.8 302.696 439.797 281.718 455.885L226.583 498.168C159.86 549.339 60.4803 488.772 75.204 405.91L87.3703 337.439C91.9994 311.387 84.6769 284.16 67.324 262.9L21.7159 207.024C-33.4787 139.403 24.1201 44.6159 109.453 62.64L179.964 77.5335C206.793 83.2002 234.304 77.2029 255.282 61.1149L310.417 18.8315Z" opacity=".3"/></svg>