<svg xmlns="http://www.w3.org/2000/svg" width="767" height="711" fill="none" viewBox="0 0 767 711"><path fill="#2ADC65" d="M512.45 192.057C470.465 175.245 435.793 144.014 403.571 111.856C371.35 79.6993 340.176 45.6576 302.001 21.1986C277.46 5.46349 247.164 -6.18841 219.39 3.8999C192.66 13.6014 175.638 40.5904 162.459 66.5502C152.543 86.0853 143.39 107.091 144.058 128.882C144.538 144.009 149.76 158.423 151.612 173.406C158.047 225.531 123.225 274.78 84.0894 309.748C65.7303 326.162 45.9246 340.957 29.6711 359.56C13.4176 378.163 0.696609 401.548 0.50268 426.28C0.315624 450.777 12.3959 473.506 27.69 491.868C58.7589 529.143 102.724 552.139 146.545 571.867C243.579 615.446 345.394 647.145 446.935 678.748C484.516 690.437 522.266 702.177 561.253 707.932C582.903 711.131 606.023 712.264 626.025 702.408C651.414 689.889 667.408 659.21 663.304 630.874C656.417 583.358 601.87 552.973 602.334 504.739C602.595 478.193 620.178 454.696 639.651 436.835C681.414 398.523 738.181 371.982 759.362 318.843C773.914 282.346 766.658 238.131 741.439 209.571C715.017 179.623 668.593 165.908 633.648 187.764C597.658 210.286 549.517 206.894 512.45 192.057Z" opacity=".3"/></svg>