<svg width="20" height="20" viewBox="0 0 20 20" fill="none" xmlns="http://www.w3.org/2000/svg">
<path d="M13.6854 6.3035C13.3556 5.9737 12.8201 5.9737 12.4903 6.3035L9.98715 8.80662L7.48404 6.3035C7.15423 5.9737 6.61866 5.9737 6.28886 6.3035C5.95905 6.63331 5.95905 7.16888 6.28886 7.49868L8.79197 10.0018L6.28886 12.5049C5.95905 12.8347 5.95905 13.3703 6.28886 13.7001C6.45235 13.8664 6.6694 13.9481 6.88645 13.9481C7.10349 13.9481 7.32054 13.8664 7.48404 13.7001L9.98715 11.197L12.4903 13.7001C12.6538 13.8664 12.8708 13.9481 13.0879 13.9481C13.3049 13.9481 13.5219 13.8664 13.6854 13.7001C14.0152 13.3703 14.0152 12.8347 13.6854 12.5049L11.1823 10.0018L13.6854 7.49868C14.0152 7.16888 14.0152 6.63331 13.6854 6.3035Z" fill="#A9AAAB"/>
<path d="M17.316 13.9113C17.0962 14.3229 17.254 14.8359 17.6656 15.0558C18.0799 15.2757 18.5901 15.1178 18.81 14.7063C19.6444 13.1362 20.0334 11.4195 19.9826 9.71412C19.9826 9.68312 19.9798 9.65211 19.977 9.6211C19.9713 9.45479 19.9601 9.28566 19.946 9.11935C19.9403 9.04324 19.9291 8.96995 19.9206 8.89384C19.9065 8.77264 19.8924 8.65143 19.8755 8.53022C19.8586 8.40901 19.8332 8.28498 19.8107 8.16377C19.7966 8.09048 19.7853 8.02001 19.7712 7.94672C19.7346 7.77759 19.6951 7.61128 19.65 7.44497C19.6444 7.4196 19.6387 7.39423 19.6303 7.36886C19.3738 6.42456 18.9735 5.51972 18.4464 4.68253C18.421 4.64306 18.3956 4.6036 18.3703 4.56132C18.3111 4.4683 18.2491 4.37527 18.1842 4.28507C18.1166 4.18641 18.0461 4.09057 17.9756 3.99473C17.9418 3.94963 17.9108 3.90735 17.877 3.86225C17.0031 2.7319 15.9038 1.81579 14.6466 1.15336C14.6381 1.15054 14.6297 1.14491 14.624 1.14209C14.4972 1.07444 14.3647 1.01242 14.235 0.950407C14.2125 0.939132 14.1871 0.927857 14.1646 0.916581C14.0462 0.863024 13.9278 0.812285 13.8094 0.761546C13.7728 0.747452 13.7389 0.733358 13.7023 0.719264C13.5895 0.674163 13.4768 0.631881 13.364 0.592417C13.3246 0.578323 13.2823 0.564228 13.2428 0.550134C13.1273 0.510671 13.0117 0.474026 12.8933 0.437382C12.8595 0.426106 12.8228 0.41765 12.789 0.406375C12.7298 0.389462 12.6734 0.36973 12.6142 0.352817C12.5409 0.333085 12.4676 0.316172 12.3915 0.299259C12.3774 0.296441 12.3634 0.293622 12.3493 0.287984C10.2943 -0.213766 8.1774 -0.0559118 6.24369 0.730539C6.2155 0.741814 6.19013 0.753089 6.16194 0.764365C6.05201 0.809466 5.94208 0.857386 5.83214 0.908125C5.75885 0.941951 5.68556 0.978596 5.60946 1.01524C5.54462 1.04625 5.47979 1.07725 5.41496 1.11108C5.31348 1.16182 5.21482 1.2182 5.11616 1.27175C5.08515 1.28867 5.05415 1.30558 5.02314 1.32249C5.01186 1.32813 5.00341 1.33659 4.99213 1.34222C4.88502 1.40424 4.7779 1.46907 4.67079 1.53672C4.63132 1.56209 4.59468 1.58464 4.55522 1.60719C4.46219 1.66639 4.36917 1.73122 4.27897 1.79323C4.22823 1.82706 4.17749 1.86371 4.12675 1.90035C4.05628 1.95109 3.98863 2.00465 3.91816 2.0582C3.84769 2.11176 3.78004 2.1625 3.71239 2.21888C3.66447 2.25834 3.61937 2.2978 3.57145 2.33727C3.48688 2.40774 3.3995 2.48103 3.31775 2.55432C3.28393 2.58532 3.25292 2.61633 3.21909 2.64452C3.12607 2.72908 3.03587 2.81647 2.94567 2.90385C2.93721 2.91231 2.92876 2.92076 2.9203 2.92922C2.89775 2.95177 2.8752 2.97714 2.85265 2.99969C2.76808 3.08707 2.68352 3.17164 2.60459 3.26184C2.56231 3.30694 2.52285 3.35486 2.48056 3.39996C2.41573 3.47325 2.3509 3.54654 2.28888 3.62265C2.23251 3.6903 2.17895 3.75795 2.12539 3.82842C2.08311 3.88198 2.04083 3.93554 2.00136 3.9891C1.93089 4.08212 1.86606 4.17514 1.79841 4.26816C1.77586 4.29917 1.75613 4.33017 1.73357 4.36118C1.65465 4.47957 1.57572 4.59796 1.50243 4.71635C1.49679 4.72481 1.49116 4.73326 1.48552 4.74172C0.975312 5.56764 0.59759 6.45275 0.349534 7.36604C0.349534 7.37168 0.346715 7.3745 0.346715 7.38014C0.31007 7.52108 0.273426 7.66202 0.242419 7.80296C0.236781 7.83115 0.231143 7.85934 0.222687 7.89034C0.197317 8.00592 0.174767 8.12149 0.155035 8.23988C0.14376 8.29907 0.135304 8.35545 0.126847 8.41465C0.112753 8.50203 0.0986589 8.58941 0.0873836 8.6768C0.0761083 8.767 0.0648331 8.85438 0.0563766 8.94458C0.050739 9.00096 0.0451012 9.05734 0.0394636 9.11371C0.0281883 9.23492 0.0197318 9.35331 0.0140942 9.47452C0.0112753 9.50271 0.0112753 9.52808 0.0112753 9.55627C0.00563763 9.70285 0 9.84943 0 9.996C0 9.99882 0 10.0016 0 10.0016C0 10.9488 0.132485 11.9043 0.408729 12.8374C0.411548 12.8458 0.414367 12.8543 0.417185 12.8627C0.459468 13.0009 0.50175 13.1362 0.54967 13.2715C0.560946 13.3053 0.572221 13.3363 0.586315 13.3701C0.625778 13.4801 0.668061 13.59 0.710343 13.6999C0.735713 13.7619 0.761082 13.8211 0.786451 13.8803C0.820277 13.9621 0.856922 14.0466 0.893566 14.1284C0.93303 14.2158 0.975312 14.3003 1.01759 14.3877C1.04578 14.4441 1.07397 14.5033 1.10216 14.5597C1.15572 14.664 1.21209 14.7683 1.27129 14.8726C1.2882 14.9008 1.3023 14.9318 1.31921 14.9628C1.32485 14.974 1.3333 14.9853 1.33894 14.9966C1.39532 15.0953 1.45451 15.1911 1.51653 15.2898C1.54471 15.3377 1.57572 15.3856 1.60391 15.4307C1.65465 15.5068 1.70539 15.5829 1.75894 15.659C1.80686 15.7295 1.85478 15.7971 1.9027 15.8648C1.93653 15.9099 1.97036 15.9578 2.007 16.0029C2.08029 16.1016 2.1564 16.1974 2.23251 16.2933C2.24378 16.3073 2.25788 16.3243 2.26915 16.3384C3.1148 17.3757 4.15494 18.2213 5.33321 18.8415C5.34167 18.8471 5.35012 18.8499 5.35858 18.8556C5.48543 18.9232 5.61509 18.9852 5.74758 19.0472C5.77013 19.0585 5.7955 19.0698 5.81805 19.0811C5.93644 19.1346 6.05483 19.1854 6.17322 19.2361C6.20986 19.2502 6.24369 19.2643 6.28033 19.2812C6.39309 19.3263 6.50584 19.3686 6.61859 19.408C6.65806 19.4221 6.70034 19.4362 6.7398 19.4503C6.85537 19.4898 6.97095 19.5264 7.08934 19.5631C7.12316 19.5744 7.15699 19.5828 7.19363 19.5941C7.25283 19.611 7.3092 19.6307 7.3684 19.6476C7.42196 19.6617 7.47551 19.673 7.52907 19.6843C7.60518 19.704 7.68129 19.7209 7.76021 19.7378C8.5072 19.9098 9.26265 20 10.0125 20C11.1315 20 12.2421 19.8055 13.3048 19.4306C13.3077 19.4306 13.3133 19.4278 13.3161 19.425C13.5219 19.3517 13.7277 19.2699 13.9306 19.1825C14.0575 19.129 14.1843 19.0726 14.3083 19.0134C14.3591 18.9909 14.407 18.9655 14.4577 18.9401C14.6071 18.8668 14.7565 18.7879 14.9031 18.7033C14.9228 18.6921 14.9398 18.6836 14.9595 18.6723C14.9623 18.6695 14.9651 18.6667 14.9679 18.6667C15.7177 18.2382 16.4253 17.7055 17.0651 17.0656C17.3949 16.7358 17.3949 16.2002 17.0651 15.8704C16.7353 15.5406 16.1998 15.5406 15.87 15.8704C15.3118 16.4286 14.6945 16.888 14.0377 17.2516C13.9588 17.2968 13.8771 17.339 13.7981 17.3813C13.7418 17.4095 13.6882 17.4377 13.6318 17.4631C13.5726 17.4912 13.5134 17.5223 13.4514 17.5504C13.3584 17.5927 13.2654 17.6322 13.1724 17.6717C13.1526 17.6801 13.1301 17.6886 13.1103 17.697C11.4952 18.3482 9.71366 18.4694 8.03646 18.0635C8.02518 18.0606 8.01391 18.0578 7.99982 18.055C7.88988 18.0268 7.77995 17.9986 7.67283 17.9676C7.64183 17.9592 7.61082 17.9507 7.58263 17.9394C7.48679 17.9113 7.39095 17.8802 7.29793 17.8464C7.26128 17.8351 7.22746 17.8211 7.19081 17.8098C7.09779 17.7759 7.00477 17.7421 6.91175 17.7055C6.88074 17.6942 6.84974 17.6801 6.81873 17.6688C6.72007 17.6294 6.62141 17.5871 6.52557 17.542C6.50584 17.5335 6.48329 17.5223 6.46356 17.5138C6.35644 17.4631 6.24933 17.4123 6.14503 17.3559C6.13657 17.3503 6.12812 17.3475 6.11966 17.3419C5.40086 16.9641 4.72716 16.4737 4.12394 15.8704C3.93226 15.6787 3.74903 15.4758 3.5799 15.27C3.56581 15.2531 3.55453 15.239 3.54044 15.2221C3.47843 15.146 3.41923 15.0699 3.36285 14.991C3.33185 14.9487 3.29802 14.9064 3.26983 14.8641C3.23319 14.8106 3.19654 14.7598 3.1599 14.7063C3.1148 14.6386 3.06688 14.571 3.0246 14.5033C3.00204 14.4695 2.98231 14.4356 2.95976 14.399C2.9062 14.3144 2.85547 14.2299 2.80473 14.1425C2.78781 14.1143 2.7709 14.0833 2.75681 14.0551C2.70607 13.9649 2.65533 13.8719 2.61023 13.7817C2.58768 13.7394 2.56795 13.6943 2.5454 13.652C2.50875 13.5759 2.47211 13.4998 2.43828 13.4237C2.41009 13.3589 2.3819 13.294 2.35372 13.2292C2.33117 13.1756 2.30861 13.1221 2.28606 13.0685C2.25224 12.9811 2.21841 12.8909 2.18741 12.8035C2.17613 12.7725 2.16485 12.7415 2.15358 12.7105C2.11693 12.6006 2.08029 12.4907 2.04646 12.3779C2.04365 12.3695 2.04083 12.3582 2.03801 12.3497C1.8125 11.583 1.69975 10.7909 1.69975 9.99882C1.69975 9.996 1.69975 9.99319 1.69975 9.99037C1.69975 9.86916 1.70257 9.74795 1.70821 9.62674C1.70821 9.60137 1.71102 9.57882 1.71102 9.55345C1.71666 9.45479 1.7223 9.35613 1.73357 9.25747C1.73921 9.20955 1.74203 9.16163 1.74767 9.11371C1.75613 9.04042 1.76458 8.96713 1.77304 8.89103C1.7815 8.81774 1.79277 8.74445 1.80405 8.67398C1.8125 8.62606 1.82096 8.57814 1.82941 8.53022C1.84633 8.43438 1.86606 8.33572 1.88579 8.23988C1.89143 8.21733 1.89707 8.19196 1.9027 8.16941C1.92807 8.05102 1.95908 7.93545 1.99009 7.81706C1.99009 7.81424 1.99291 7.81142 1.99291 7.8086C2.2015 7.0447 2.52003 6.30899 2.93721 5.62683C2.94285 5.62119 2.94567 5.61274 2.95131 5.6071C3.01332 5.50562 3.07815 5.40696 3.1458 5.31112C3.16272 5.28575 3.17963 5.26038 3.19654 5.23502C3.25292 5.15609 3.3093 5.07716 3.36567 5.00105C3.3995 4.95595 3.43332 4.91085 3.46715 4.86857C3.51225 4.81219 3.55735 4.753 3.60527 4.69662C3.65601 4.63461 3.70957 4.57259 3.76313 4.5134C3.79695 4.47393 3.83078 4.43447 3.8646 4.39783C3.93226 4.32454 3.99991 4.25407 4.07038 4.18078C4.09575 4.15259 4.12394 4.12722 4.14931 4.09903C4.22259 4.02574 4.2987 3.95245 4.37763 3.88198C4.40582 3.85661 4.43119 3.83124 4.45938 3.80587C4.52985 3.74386 4.60032 3.68184 4.67361 3.62265C4.71307 3.59164 4.74971 3.55782 4.78918 3.52681C4.84555 3.47889 4.90475 3.43661 4.96394 3.39151C5.02032 3.34922 5.0767 3.30694 5.13307 3.26466C5.17536 3.23365 5.22046 3.20546 5.26274 3.17446C5.33603 3.12372 5.41214 3.07016 5.48825 3.02224C5.52207 2.99969 5.5559 2.97996 5.58972 2.96023C5.67429 2.90667 5.76167 2.85311 5.84905 2.80237C5.8857 2.77982 5.92516 2.76009 5.96181 2.74036C6.04073 2.69526 6.11966 2.65298 6.20141 2.61069C6.25778 2.5825 6.31416 2.55432 6.37336 2.52613C6.43255 2.49794 6.48893 2.46975 6.54812 2.44156C6.64396 2.39928 6.7398 2.357 6.83564 2.31754C6.85537 2.30908 6.87229 2.30062 6.89202 2.29498C8.5072 1.64384 10.2887 1.51981 11.9687 1.92572C11.98 1.92854 11.9913 1.93136 12.0025 1.93418C12.1125 1.96236 12.2224 1.99055 12.3295 2.02156C12.3605 2.03002 12.3915 2.03847 12.4197 2.04975C12.5156 2.07794 12.6114 2.10894 12.7044 2.14277C12.7411 2.15404 12.7749 2.16814 12.8115 2.17941C12.9046 2.21324 12.9976 2.24707 13.0878 2.28371C13.1188 2.29499 13.1498 2.30908 13.1808 2.32317C13.2795 2.36264 13.3753 2.40492 13.474 2.45002C13.4937 2.45848 13.5162 2.46975 13.536 2.47821C13.6431 2.52895 13.7502 2.57969 13.8545 2.63606C13.863 2.6417 13.8714 2.64452 13.8799 2.65016C14.5987 3.02788 15.2724 3.51835 15.8756 4.12158C16.1208 4.36682 16.3492 4.62615 16.5578 4.89676C16.5888 4.93622 16.617 4.97568 16.6451 5.01515C16.7015 5.09126 16.7579 5.17018 16.8143 5.24629C16.8678 5.3224 16.9214 5.40133 16.9721 5.48025C16.9919 5.51126 17.0116 5.54227 17.0313 5.57327C17.0933 5.67193 17.1553 5.77059 17.2117 5.87207C17.5641 6.48939 17.8347 7.14054 18.0179 7.80578C18.0235 7.82833 18.0292 7.85088 18.0348 7.87343C18.0715 8.01155 18.1053 8.14968 18.1335 8.2878C18.1476 8.34981 18.156 8.40901 18.1673 8.47102C18.187 8.5725 18.2039 8.67116 18.2209 8.77264C18.235 8.87411 18.2462 8.97559 18.2575 9.07425C18.2631 9.13626 18.2716 9.19828 18.2772 9.26029C18.2885 9.39841 18.297 9.53654 18.3026 9.67748C18.3026 9.70285 18.3054 9.73104 18.3054 9.7564C18.3252 10.4442 18.2575 11.1433 18.0997 11.8339C17.9249 12.5527 17.6684 13.2461 17.316 13.9113Z" fill="#A9AAAB"/>
</svg>
