<svg xmlns="http://www.w3.org/2000/svg" width="16" height="16" fill="none" viewBox="0 0 16 16"><circle cx="8" cy="8" r="8" fill="#777F82" opacity=".15"/><path fill="#777F82" stroke="#777F82" stroke-width=".2" d="M11.0707 5.675L11.1414 5.60429L11.0707 5.53358L10.4664 4.92929L10.3957 4.85858L10.325 4.92929L8 7.25429L5.675 4.92929L5.60429 4.85858L5.53358 4.92929L4.92929 5.53358L4.85858 5.60429L4.92929 5.675L7.25429 8L4.92929 10.325L4.85858 10.3957L4.92929 10.4664L5.53358 11.0707L5.60429 11.1414L5.675 11.0707L8 8.74571L10.325 11.0707L10.3957 11.1414L10.4664 11.0707L11.0707 10.4664L11.1414 10.3957L11.0707 10.325L8.74571 8L11.0707 5.675Z"/></svg>