<svg width="14" height="14" viewBox="0 0 14 14" fill="none" xmlns="http://www.w3.org/2000/svg">
<path d="M7 0C3.13953 0 0 3.13953 0 7C0 10.8605 3.13953 14 7 14C10.8605 14 14 10.8605 14 7C14 3.13953 10.8605 0 7 0ZM7 0.933333C10.3561 0.933333 13.0667 3.64394 13.0667 7C13.0667 10.356 10.3561 13.0667 7 13.0667C3.64394 13.0667 0.933333 10.356 0.933333 7C0.933333 3.64394 3.64394 0.933333 7 0.933333ZM7 3.11111C5.71686 3.11111 4.66667 4.16131 4.66667 5.44444C4.66579 5.50628 4.67722 5.56768 4.70028 5.62506C4.72334 5.68245 4.75757 5.73468 4.80099 5.77872C4.84441 5.82276 4.89615 5.85773 4.95321 5.8816C5.01026 5.90547 5.07149 5.91776 5.13333 5.91776C5.19518 5.91776 5.25641 5.90547 5.31346 5.8816C5.37051 5.85773 5.42225 5.82276 5.46567 5.77872C5.5091 5.73468 5.54333 5.68245 5.56639 5.62506C5.58945 5.56768 5.60087 5.50628 5.6 5.44444C5.6 4.66572 6.22127 4.04444 7 4.04444C7.77873 4.04444 8.4 4.66572 8.4 5.44444C8.4 5.92873 8.20476 6.25932 7.88472 6.59653C7.56468 6.93373 7.12064 7.23891 6.70833 7.56875C6.65369 7.61251 6.60959 7.66799 6.57929 7.7311C6.549 7.79421 6.53329 7.86333 6.53333 7.93333V8.55556C6.53246 8.61739 6.54388 8.67879 6.56694 8.73618C6.59 8.79356 6.62424 8.84579 6.66766 8.88983C6.71108 8.93387 6.76282 8.96884 6.81987 8.99271C6.87693 9.01658 6.93816 9.02887 7 9.02887C7.06185 9.02887 7.12307 9.01658 7.18013 8.99271C7.23718 8.96884 7.28892 8.93387 7.33234 8.88983C7.37576 8.84579 7.41 8.79356 7.43306 8.73618C7.45612 8.67879 7.46754 8.61739 7.46667 8.55556V8.16181C7.80667 7.90226 8.20597 7.61679 8.56528 7.23819C8.98413 6.79688 9.33333 6.20161 9.33333 5.44444C9.33333 4.16131 8.28314 3.11111 7 3.11111ZM7 9.64444C6.65636 9.64444 6.37778 9.92301 6.37778 10.2667C6.37778 10.6103 6.65636 10.8889 7 10.8889C7.34364 10.8889 7.62222 10.6103 7.62222 10.2667C7.62222 9.92301 7.34364 9.64444 7 9.64444Z" fill="#777F82"/>
</svg>
