<svg width="1920" height="1025" viewBox="0 0 1920 1025" fill="none" xmlns="http://www.w3.org/2000/svg">
<path opacity="0.15" d="M1295.88 462.272C1371.3 404.47 1483.64 472.886 1466.99 566.487L1453.24 643.831C1448.01 673.259 1456.29 704.014 1475.9 728.029L1527.45 791.147C1589.84 867.531 1524.74 974.602 1428.28 954.242L1348.58 937.419C1318.25 931.018 1287.15 937.792 1263.44 955.965L1201.12 1003.73C1125.7 1061.53 1013.36 993.114 1030.01 899.513L1043.76 822.169C1048.99 792.741 1040.71 761.986 1021.1 737.971L969.547 674.853C907.157 598.469 972.264 491.398 1068.72 511.758L1148.42 528.581C1178.75 534.982 1209.85 528.208 1233.56 510.035L1295.88 462.272Z" fill="#2ADC65"/>
<path opacity="0.1" d="M239.038 -76.3001C55.233 -183.02 -100.358 -110.659 -135.02 9.81351C-165.167 170.951 -65.376 324.792 -13.0544 374.988C35.8054 421.862 277.444 510.647 400.477 526.201C523.511 541.754 483.388 393.712 380.862 315.321C278.336 236.931 283.032 133.781 287.387 51.4527C290.871 -14.4097 266.033 -60.6264 239.038 -76.3001Z" fill="#2ADC65"/>
<path opacity="0.15" d="M1627.44 288.743C1656.37 420.681 1815.33 440.438 1891.2 433.825C2016.04 416.429 2075.19 296.215 1987.44 253.495C1899.7 210.775 1891.42 179.878 1872.47 101.664C1853.52 23.4502 1786.6 17.951 1754.7 21.8305C1723.84 25.5846 1591.28 123.822 1627.44 288.743Z" fill="#2ADC65"/>
</svg>
