<svg width="1919" height="143" viewBox="0 0 1919 143" fill="none" xmlns="http://www.w3.org/2000/svg">
<mask id="mask0_332_2071" style="mask-type:alpha" maskUnits="userSpaceOnUse" x="0" y="0" width="1919" height="143">
<g clip-path="url(#clip0_332_2071)">
<path d="M1838.26 50.8952C1800.01 50.8952 1768.02 77.1087 1759.66 112.287C1740.96 70.5553 1698.63 41.3913 1649.35 41.3913C1610.91 41.3913 1576.72 59.1224 1554.65 86.726C1534.41 49.1362 1494.31 23.5468 1448.11 23.5468C1405.4 23.5468 1367.88 45.4766 1346.47 78.4988C1332.24 61.6473 1310.77 50.9235 1286.76 50.9235C1256.75 50.9235 1230.76 67.69 1217.81 92.2298C1183.36 45.2212 1127.36 14.6104 1064.06 14.6104C1004.07 14.6104 950.606 42.1006 915.878 84.9955C899.095 52.7108 865.027 30.6392 825.711 30.6392C785.231 30.6392 750.283 54.0442 734.066 87.8892C719.264 70.7256 697.201 59.8316 672.53 59.8316C639.625 59.8316 611.34 79.2365 598.768 107.067C583.494 58.6968 537.735 23.5752 483.616 23.5752C436.348 23.5752 395.428 50.4129 375.692 89.4779C366.106 74.8108 349.386 65.0516 330.372 65.0516C314.218 65.0516 299.793 72.0873 289.893 83.1515C264.719 33.845 212.925 0 153.118 0C68.5447 0 0 67.5765 0 150.927V143.028H1919V130.5C1919 86.5275 1882.86 50.8952 1838.26 50.8952Z" fill="#143057"/>
</g>
</mask>
<g mask="url(#mask0_332_2071)">
<rect x="-1" y="-256" width="1920" height="399" fill="#143057"/>
</g>
<defs>
<clipPath id="clip0_332_2071">
<rect width="1919" height="143" fill="white"/>
</clipPath>
</defs>
</svg>
