<svg xmlns="http://www.w3.org/2000/svg" width="1919" height="350" fill="none" viewBox="0 0 1919 350"><mask id="mask0_536_12" width="1919" height="143" x="0" y="207" maskUnits="userSpaceOnUse" style="mask-type:alpha"><g clip-path="url(#clip0_536_12)"><path fill="#143057" d="M1838.26 257.895C1800.01 257.895 1768.02 284.109 1759.66 319.287C1740.96 277.555 1698.63 248.391 1649.35 248.391C1610.91 248.391 1576.72 266.122 1554.65 293.726C1534.41 256.136 1494.31 230.547 1448.11 230.547C1405.4 230.547 1367.88 252.477 1346.47 285.499C1332.24 268.647 1310.77 257.924 1286.76 257.924C1256.75 257.924 1230.76 274.69 1217.81 299.23C1183.36 252.221 1127.36 221.61 1064.06 221.61C1004.07 221.61 950.606 249.101 915.878 291.995C899.095 259.711 865.027 237.639 825.711 237.639C785.231 237.639 750.283 261.044 734.066 294.889C719.264 277.726 697.201 266.832 672.53 266.832C639.625 266.832 611.34 286.236 598.768 314.067C583.494 265.697 537.735 230.575 483.616 230.575C436.348 230.575 395.428 257.413 375.692 296.478C366.106 281.811 349.386 272.052 330.372 272.052C314.218 272.052 299.793 279.087 289.893 290.151C264.719 240.845 212.925 207 153.118 207C68.5447 207 0 274.577 0 357.927V350.028H1919V337.5C1919 293.527 1882.86 257.895 1838.26 257.895Z"/></g></mask><g mask="url(#mask0_536_12)"><rect width="1920" height="399" x="-1" y="-49" fill="#143057"/></g><g clip-path="url(#clip1_536_12)"><path fill="#174559" d="M201.755 168.919C188.889 168.919 178.461 179.364 178.461 192.252C178.461 225.752 201.755 247.666 201.755 292.986C201.755 247.651 225.049 225.752 225.049 192.252C225.049 179.364 214.622 168.919 201.755 168.919Z"/><path fill="#1B635B" d="M201.755 168.919C193.138 168.919 186.157 175.912 186.157 184.542C186.157 206.968 201.755 221.641 201.755 251.981C201.755 221.626 217.352 206.968 217.352 184.542C217.338 175.912 210.357 168.919 201.755 168.919Z"/><path fill="url(#paint0_linear_536_12)" d="M217.426 174.96L185.384 174.799C183.88 174.785 182.668 173.556 182.668 172.049L182.697 166.095L220.201 166.285L220.172 172.239C220.172 173.746 218.945 174.975 217.426 174.96Z"/><path fill="url(#paint1_linear_536_12)" d="M240.662 112.817L261.283 141.87C263.751 145.351 264.598 149.74 263.576 153.895L253.835 193.495C253.513 194.782 251.936 195.25 250.958 194.343L219.719 165.832L240.662 112.817Z"/><path fill="url(#paint2_linear_536_12)" d="M162.586 112.554L141.775 141.46C139.277 144.927 138.416 149.316 139.409 153.47L148.872 193.144C149.179 194.431 150.756 194.914 151.735 194.021L183.164 165.729L162.586 112.554Z"/><path fill="url(#paint3_linear_536_12)" d="M202.135 0C166.675 28.9211 147.032 120.366 175.555 163.842C176.431 165.188 177.789 165.993 179.235 166.007L223.501 166.242C224.947 166.256 226.305 165.452 227.196 164.12C256.142 120.951 237.317 29.3015 202.135 0Z"/><path fill="url(#paint4_linear_536_12)" d="M202.135 0C189.327 10.445 178.607 29.082 171.451 50.6449C160.074 50.1036 232.308 50.8936 232.308 50.8936C225.371 29.2868 214.826 10.5766 202.135 0Z"/><path fill="#76FFA4" d="M201.712 108.545C212.98 108.545 222.114 99.3955 222.114 88.1088C222.114 76.8221 212.98 67.6724 201.712 67.6724C190.444 67.6724 181.309 76.8221 181.309 88.1088C181.309 99.3955 190.444 108.545 201.712 108.545Z"/><path fill="#32E66D" d="M218.054 85.6659C219.398 94.7065 213.176 103.133 204.151 104.493C195.125 105.839 186.713 99.6071 185.355 90.5666C184.011 81.526 190.233 73.0998 199.258 71.7393C208.299 70.3788 216.711 76.6253 218.054 85.6659Z"/><path fill="#2ADC65" d="M218.055 85.6658C217.485 81.8477 215.645 78.527 213.045 76.0693C213.06 76.5228 213.104 76.9617 213.147 77.4006C213.396 79.434 213.819 81.5405 213.235 83.5008C212.695 85.3147 211.249 86.8508 209.467 87.4944C206.911 88.416 203.932 87.5822 201.464 88.694C198.455 90.0545 197.17 93.8726 194.191 95.3208C192.789 95.9938 191.138 96.0523 189.605 95.8182C188.51 95.6427 187.414 95.3062 186.553 94.6333C189.444 101.377 196.571 105.605 204.166 104.464C213.177 103.133 219.413 94.7064 218.055 85.6658Z"/><g opacity=".4"><path fill="#fff" d="M202.223 74.3286C201.873 74.3286 201.522 74.3432 201.157 74.3725C200.792 74.4018 200.456 74.5773 200.222 74.8552C199.989 75.1332 199.872 75.4989 199.901 75.8646C199.959 76.5814 200.544 77.1227 201.259 77.1227H201.391C201.668 77.0935 201.96 77.0934 202.238 77.0788C202.603 77.0788 202.953 76.9325 203.216 76.6692C203.479 76.4059 203.611 76.0548 203.611 75.6891C203.596 74.943 202.983 74.3286 202.223 74.3286Z" opacity=".4"/><path fill="#fff" d="M197.594 75.323C197.258 75.1768 196.878 75.1768 196.542 75.3084C193.022 76.7274 190.218 79.5508 188.845 83.0909C188.568 83.7931 188.919 84.5977 189.634 84.8756C189.795 84.9341 189.955 84.9634 190.131 84.9634C190.7 84.9634 191.211 84.6123 191.416 84.0857C192.54 81.2184 194.717 79.0095 197.564 77.8684C197.9 77.7368 198.178 77.4735 198.324 77.137C198.47 76.8005 198.47 76.4202 198.338 76.0837C198.192 75.7473 197.93 75.4693 197.594 75.323Z" opacity=".4"/></g><path fill="#fff" d="M176.052 156.236C177.074 159.527 178.184 162.789 179.425 166.037H198.791C198.455 165.496 198.119 164.94 197.783 164.384C196.951 162.965 196.162 161.502 195.374 160.024C193.826 157.04 192.409 153.968 191.065 150.838C188.436 144.562 186.217 138.052 184.449 131.381C180.944 118.054 179.133 104.142 179.25 90.1427C179.338 83.1502 179.718 76.0991 180.725 69.1065L181.061 66.4734L181.514 63.8548L182.419 58.6177L183.559 53.4245L184.128 50.8206L184.815 48.2459C188.393 34.4802 193.504 21.0071 199.901 8.10449C192.19 20.261 185.589 33.2221 180.462 46.8708L179.484 49.4308L178.622 52.0201L176.899 57.228L175.395 62.5089L174.65 65.1568L174.022 67.8338C172.211 74.958 171.028 82.2432 170.166 89.5868C168.487 104.289 168.808 119.313 171.072 134.161C172.225 141.592 173.876 148.965 176.052 156.236Z"/><path fill="url(#paint5_linear_536_12)" d="M201.244 203.969C198.061 203.955 195.476 201.395 195.432 198.206L194.891 158.605C194.818 153.705 195.242 148.819 196.177 144.006L199.959 124.403L203.318 124.418L206.911 144.05C207.787 148.863 208.167 153.763 208.036 158.664L207.115 198.249C207.042 201.453 204.428 203.984 201.244 203.969Z"/></g><defs><linearGradient id="paint0_linear_536_12" x1="201.438" x2="201.438" y1="174.963" y2="166.101" gradientUnits="userSpaceOnUse"><stop stop-color="#fff"/><stop offset=".135" stop-color="#E4FFED"/><stop offset=".49" stop-color="#C1FFD6"/><stop offset=".786" stop-color="#97FFBA"/><stop offset="1" stop-color="#75FFA3"/></linearGradient><linearGradient id="paint1_linear_536_12" x1="219.738" x2="264.002" y1="153.817" y2="153.817" gradientUnits="userSpaceOnUse"><stop stop-color="#2ADC65"/><stop offset=".498" stop-color="#3CFF7C"/><stop offset="1" stop-color="#93FFB7"/></linearGradient><linearGradient id="paint2_linear_536_12" x1="138.955" x2="183.115" y1="153.542" y2="153.544" gradientUnits="userSpaceOnUse"><stop stop-color="#93FFB7"/><stop offset=".501" stop-color="#3CFF7C"/><stop offset="1" stop-color="#0F5"/></linearGradient><linearGradient id="paint3_linear_536_12" x1="154.434" x2="249.332" y1="47.36" y2="142.099" gradientUnits="userSpaceOnUse"><stop stop-color="#fff"/><stop offset=".209" stop-color="#CDFFDE"/><stop offset=".469" stop-color="#B0FFCA"/><stop offset=".75" stop-color="#9CFFBD"/><stop offset="1" stop-color="#88FEAF"/></linearGradient><linearGradient id="paint4_linear_536_12" x1="170.164" x2="232.239" y1="25.463" y2="25.47" gradientUnits="userSpaceOnUse"><stop stop-color="#93FFB7"/><stop offset=".501" stop-color="#3CFF7C"/><stop offset="1" stop-color="#0F5"/></linearGradient><linearGradient id="paint5_linear_536_12" x1="194.868" x2="208.046" y1="164.212" y2="164.212" gradientUnits="userSpaceOnUse"><stop stop-color="#93FFB7"/><stop offset="0" stop-color="#95EFB3"/><stop offset=".501" stop-color="#38EF74"/><stop offset="1" stop-color="#00ED4F"/></linearGradient><clipPath id="clip0_536_12"><rect width="1919" height="143" fill="#fff" transform="translate(0 207)"/></clipPath><clipPath id="clip1_536_12"><rect width="125" height="293" fill="#fff" transform="translate(139)"/></clipPath></defs></svg>