<svg width="38" height="25" viewBox="0 0 38 25" fill="none" xmlns="http://www.w3.org/2000/svg">
<path d="M0.0507812 19.2292C1.35617 17.2036 3.32775 16.3334 5.98654 15.7422C4.31504 18.3199 4.75317 20.8497 4.81319 23.2954C4.8492 24.7358 4.36906 25.111 3.04867 24.9729C2.05838 24.8709 1.05008 24.9399 0.0507812 24.9309C0.0507812 23.0313 0.0507812 21.1288 0.0507812 19.2292Z" fill="#606C80"/>
<path d="M18.8424 24.9542C15.5985 24.9542 12.3545 24.9242 9.11355 24.9722C8.18327 24.9872 7.75114 24.8012 7.83817 23.7599C7.9312 22.6706 7.9342 21.5602 7.84117 20.4709C7.67912 18.5233 8.56738 17.1579 10.1789 16.3087C15.9376 13.2778 21.7413 13.2838 27.485 16.3507C29.0394 17.1819 29.9097 18.5083 29.7657 20.3959C29.6816 21.4882 29.6726 22.5985 29.7717 23.6849C29.8707 24.7892 29.4236 24.9932 28.4213 24.9722C25.2313 24.9182 22.0354 24.9542 18.8424 24.9542Z" fill="#606C80"/>
<path d="M18.8029 10.8752C15.733 10.8752 13.2632 8.39648 13.3143 5.36258C13.3623 2.3797 15.796 0 18.7999 0C21.8038 0 24.2405 2.3767 24.2915 5.35958C24.3485 8.39048 21.8728 10.8752 18.8029 10.8752Z" fill="#606C80"/>
<path d="M7.04346 12.4333C4.85581 12.4153 3.14531 10.6688 3.19032 8.49614C3.23533 6.39852 4.94584 4.70002 7.03746 4.67301C9.2011 4.646 10.9446 6.38352 10.9446 8.56516C10.9506 10.7738 9.25512 12.4513 7.04346 12.4333Z" fill="#606C80"/>
<path d="M30.468 4.67715C32.6136 4.64114 34.4052 6.39966 34.4202 8.54829C34.4352 10.6609 32.7817 12.3654 30.6601 12.4284C28.4334 12.4945 26.7109 10.871 26.6629 8.66533C26.6209 6.47168 28.2954 4.71316 30.468 4.67715Z" fill="#606C80"/>
<path d="M31.4102 15.8086C33.8439 16.1117 35.5964 16.9369 37.0008 18.4704C37.8081 19.3496 37.547 20.454 37.553 21.4803C37.571 25.0843 37.562 25.0573 33.9399 24.9763C33.1027 24.9583 32.7876 24.7422 32.8266 23.878C32.8866 22.4796 32.8356 21.0782 32.8416 19.6767C32.8506 18.3443 32.5745 17.105 31.4102 15.8086Z" fill="#606C80"/>
</svg>
