<svg xmlns="http://www.w3.org/2000/svg" width="125" height="293" fill="none" viewBox="0 0 125 293"><path fill="#174559" d="M62.7551 168.919C49.8886 168.919 39.4609 179.364 39.4609 192.252C39.4609 225.752 62.7551 247.666 62.7551 292.986C62.7551 247.651 86.0493 225.752 86.0493 192.252C86.0493 179.364 75.6217 168.919 62.7551 168.919Z"/><path fill="#1B635B" d="M62.7547 168.919C54.1381 168.919 47.1571 175.912 47.1571 184.542C47.1571 206.968 62.7547 221.641 62.7547 251.981C62.7547 221.626 78.3523 206.968 78.3523 184.542C78.3377 175.912 71.3568 168.919 62.7547 168.919Z"/><path fill="url(#paint0_linear_332_2076)" d="M78.4263 174.96L46.384 174.799C44.8798 174.785 43.6676 173.556 43.6676 172.049L43.6968 166.095L81.2012 166.285L81.172 172.239C81.172 173.746 79.9452 174.975 78.4263 174.96Z"/><path fill="url(#paint1_linear_332_2076)" d="M101.662 112.817L122.283 141.87C124.751 145.351 125.598 149.74 124.576 153.895L114.835 193.495C114.513 194.782 112.936 195.25 111.958 194.343L80.7186 165.832L101.662 112.817Z"/><path fill="url(#paint2_linear_332_2076)" d="M23.5861 112.554L2.77466 141.46C0.277288 144.927 -0.584378 149.316 0.408728 153.47L9.87245 193.144C10.1791 194.431 11.7564 194.914 12.7349 194.021L44.1638 165.729L23.5861 112.554Z"/><path fill="url(#paint3_linear_332_2076)" d="M63.135 0C27.6752 28.9211 8.03217 120.366 36.5548 163.842C37.431 165.188 38.7893 165.993 40.2351 166.007L84.5014 166.242C85.9472 166.256 87.3054 165.452 88.1963 164.12C117.142 120.951 98.3172 29.3015 63.135 0Z"/><path fill="url(#paint4_linear_332_2076)" d="M63.1352 0C50.327 10.445 39.6073 29.082 32.4511 50.6449C21.0742 50.1036 93.3081 50.8936 93.3081 50.8936C86.3709 29.2868 75.8265 10.5766 63.1352 0Z"/><path fill="#76FFA4" d="M62.7116 108.545C73.9796 108.545 83.1141 99.3955 83.1141 88.1088C83.1141 76.8221 73.9796 67.6724 62.7116 67.6724C51.4436 67.6724 42.3091 76.8221 42.3091 88.1088C42.3091 99.3955 51.4436 108.545 62.7116 108.545Z"/><path fill="#32E66D" d="M79.0543 85.6659C80.3979 94.7065 74.1764 103.133 65.1508 104.493C56.1252 105.839 47.713 99.6071 46.3548 90.5666C45.0112 81.526 51.2327 73.0998 60.2583 71.7393C69.2985 70.3788 77.7107 76.6253 79.0543 85.6659Z"/><path fill="#2ADC65" d="M79.0545 85.6658C78.485 81.8477 76.6448 78.527 74.0452 76.0693C74.0598 76.5228 74.1036 76.9617 74.1474 77.4006C74.3957 79.434 74.8192 81.5405 74.2351 83.5008C73.6947 85.3147 72.2488 86.8508 70.4671 87.4944C67.9113 88.416 64.932 87.5822 62.4638 88.694C59.4553 90.0545 58.1701 93.8726 55.1908 95.3208C53.7887 95.9938 52.1384 96.0523 50.605 95.8182C49.5096 95.6427 48.4143 95.3062 47.5526 94.6333C50.4443 101.377 57.5713 105.605 65.1657 104.464C74.1766 103.133 80.4128 94.7064 79.0545 85.6658Z"/><g opacity=".4"><path fill="#fff" d="M63.2231 74.3286C62.8726 74.3286 62.5221 74.3432 62.157 74.3725C61.7919 74.4018 61.456 74.5773 61.2223 74.8552C60.9886 75.1332 60.8718 75.4989 60.901 75.8646C60.9594 76.5814 61.5436 77.1227 62.2592 77.1227H62.3907C62.6682 77.0935 62.9603 77.0934 63.2377 77.0788C63.6029 77.0788 63.9534 76.9325 64.2163 76.6692C64.4791 76.4059 64.6106 76.0548 64.6106 75.6891C64.596 74.943 63.9826 74.3286 63.2231 74.3286Z" opacity=".4"/><path fill="#fff" d="M58.5936 75.323C58.2577 75.1768 57.878 75.1768 57.5421 75.3084C54.0224 76.7274 51.2183 79.5508 49.8455 83.0909C49.568 83.7931 49.9185 84.5977 50.6341 84.8756C50.7948 84.9342 50.9554 84.9634 51.1307 84.9634C51.7003 84.9634 52.2114 84.6123 52.4159 84.0857C53.5404 81.2184 55.7165 79.0095 58.5644 77.8684C58.9003 77.7368 59.1778 77.4735 59.3238 77.137C59.4699 76.8005 59.4699 76.4202 59.3384 76.0837C59.1924 75.7473 58.9295 75.4693 58.5936 75.323Z" opacity=".4"/></g><path fill="#fff" d="M37.0518 156.236C38.0741 159.527 39.1841 162.789 40.4255 166.037H59.7911C59.4552 165.496 59.1192 164.94 58.7833 164.384C57.9509 162.965 57.1622 161.502 56.3736 160.024C54.8255 157.04 53.4089 153.968 52.0653 150.838C49.4365 144.562 47.2166 138.052 45.4494 131.381C41.9443 118.054 40.1334 104.142 40.2502 90.1427C40.3378 83.1502 40.7176 76.0991 41.7253 69.1065L42.0612 66.4733L42.5139 63.8548L43.4194 58.6177L44.5585 53.4245L45.1281 50.8206L45.8145 48.2459C49.3926 34.4802 54.5042 21.0071 60.901 8.10449C53.1898 20.261 46.5886 33.2221 41.4624 46.8708L40.4839 49.4308L39.6222 52.0201L37.8989 57.228L36.3946 62.5089L35.6498 65.1568L35.0218 67.8338C33.2108 74.958 32.0279 82.2432 31.1662 89.5868C29.4867 104.289 29.808 119.313 32.0717 134.161C33.2254 141.592 34.8758 148.965 37.0518 156.236Z"/><path fill="url(#paint5_linear_332_2076)" d="M62.2444 203.969C59.0606 203.955 56.4756 201.395 56.4318 198.206L55.8915 158.605C55.8184 153.705 56.242 148.819 57.1767 144.006L60.9592 124.403L64.3183 124.418L67.911 144.05C68.7872 148.863 69.167 153.763 69.0355 158.664L68.1154 198.249C68.0424 201.453 65.4282 203.984 62.2444 203.969Z"/><defs><linearGradient id="paint0_linear_332_2076" x1="62.438" x2="62.438" y1="174.963" y2="166.101" gradientUnits="userSpaceOnUse"><stop stop-color="#fff"/><stop offset=".135" stop-color="#E4FFED"/><stop offset=".49" stop-color="#C1FFD6"/><stop offset=".786" stop-color="#97FFBA"/><stop offset="1" stop-color="#75FFA3"/></linearGradient><linearGradient id="paint1_linear_332_2076" x1="80.738" x2="125.002" y1="153.817" y2="153.817" gradientUnits="userSpaceOnUse"><stop stop-color="#2ADC65"/><stop offset=".498" stop-color="#3CFF7C"/><stop offset="1" stop-color="#93FFB7"/></linearGradient><linearGradient id="paint2_linear_332_2076" x1="-.045" x2="44.115" y1="153.542" y2="153.544" gradientUnits="userSpaceOnUse"><stop stop-color="#93FFB7"/><stop offset=".501" stop-color="#3CFF7C"/><stop offset="1" stop-color="#0F5"/></linearGradient><linearGradient id="paint3_linear_332_2076" x1="15.434" x2="110.332" y1="47.36" y2="142.099" gradientUnits="userSpaceOnUse"><stop stop-color="#fff"/><stop offset=".209" stop-color="#CDFFDE"/><stop offset=".469" stop-color="#B0FFCA"/><stop offset=".75" stop-color="#9CFFBD"/><stop offset="1" stop-color="#88FEAF"/></linearGradient><linearGradient id="paint4_linear_332_2076" x1="31.164" x2="93.239" y1="25.463" y2="25.47" gradientUnits="userSpaceOnUse"><stop stop-color="#93FFB7"/><stop offset=".501" stop-color="#3CFF7C"/><stop offset="1" stop-color="#0F5"/></linearGradient><linearGradient id="paint5_linear_332_2076" x1="55.868" x2="69.046" y1="164.212" y2="164.212" gradientUnits="userSpaceOnUse"><stop stop-color="#93FFB7"/><stop offset="0" stop-color="#95EFB3"/><stop offset=".501" stop-color="#38EF74"/><stop offset="1" stop-color="#00ED4F"/></linearGradient></defs></svg>