<svg width="40" height="40" viewBox="0 0 40 40" fill="none" xmlns="http://www.w3.org/2000/svg">
<circle cx="20" cy="20" r="20" fill="white"/>
<path d="M24.6794 19.4535C24.8115 19.4346 24.9624 19.4346 25.0945 19.4535C25.1888 19.2082 25.1888 18.9252 25.1134 18.6799C25.019 18.2082 24.8869 17.9252 24.6039 17.9818C24.3209 18.0384 24.3209 18.3591 24.4152 18.8308C24.453 19.0384 24.5285 19.2648 24.6794 19.4535ZM22.3398 19.8308C22.5285 19.9252 22.6605 19.9818 22.6983 19.9252C22.736 19.8686 22.7171 19.8308 22.6794 19.7554C22.5473 19.5667 22.3775 19.4346 22.17 19.3403C21.7171 19.1516 21.2077 19.2082 20.8303 19.5101C20.6983 19.6044 20.5851 19.7365 20.5851 19.812C20.5851 19.8308 20.6039 19.8497 20.6605 19.8686C20.7737 19.8874 21.1511 19.6988 21.5851 19.661C21.8303 19.6422 22.0945 19.6988 22.3398 19.8308ZM21.9435 20.0384C21.7549 20.0573 21.6039 20.1327 21.453 20.2459C21.3775 20.3214 21.3209 20.378 21.3209 20.4346C21.3209 20.4535 21.3209 20.4535 21.3398 20.4723C21.3586 20.4912 21.3586 20.4912 21.3775 20.4912C21.4341 20.4723 21.5096 20.4535 21.5662 20.4346C21.8303 20.3403 22.0945 20.3025 22.3775 20.3403C22.5096 20.3591 22.5662 20.3591 22.5851 20.3214C22.6039 20.2837 22.6039 20.2837 22.5851 20.2459C22.5473 20.1516 22.302 20.0195 21.9435 20.0384ZM23.8869 20.8874C24.0379 20.9818 24.2077 20.944 24.3209 20.812C24.3775 20.661 24.2832 20.4912 24.1322 20.4346H24.1134C23.9624 20.3403 23.7737 20.378 23.6794 20.5101C23.6228 20.6044 23.7171 20.7931 23.8869 20.8874ZM25.0002 19.8874C24.8303 19.9063 24.7171 20.0573 24.736 20.2271C24.736 20.4157 24.8492 20.5856 24.9813 20.5856C25.1511 20.5667 25.2643 20.4157 25.2454 20.2459C25.2454 20.0573 25.1511 19.8874 25.0002 19.8874ZM15.5851 23.3591C15.5473 23.3214 15.4907 23.3214 15.4341 23.3403C15.3964 23.3403 15.3586 23.3591 15.302 23.3591C15.2077 23.3591 15.1134 23.3214 15.0568 23.2459C15.0002 23.1139 15.0002 22.9629 15.0756 22.8308C15.0945 22.812 15.0945 22.7742 15.1134 22.7554C15.2265 22.5101 15.4152 22.0761 15.2077 21.6799C15.0756 21.3969 14.7926 21.1893 14.4719 21.1516C14.17 21.1139 13.8681 21.2271 13.6605 21.4346C13.5389 21.5644 13.4485 21.7203 13.3962 21.8903C13.3439 22.0603 13.3311 22.24 13.3586 22.4157C13.3775 22.4723 13.4152 22.4912 13.4341 22.4912C13.4907 22.4912 13.5662 22.4535 13.6228 22.3214C13.6228 22.3025 13.6228 22.3025 13.6416 22.2837C13.6605 22.1705 13.7171 22.0761 13.7737 21.9818C13.8492 21.8497 13.9813 21.7742 14.1322 21.7365C14.2832 21.6988 14.4341 21.7365 14.5662 21.812C14.7926 21.944 14.8681 22.2271 14.7737 22.4723C14.6983 22.661 14.6605 22.8497 14.6605 23.0573C14.6983 23.4723 14.9435 23.6422 15.1888 23.661C15.3586 23.6799 15.5096 23.6044 15.6039 23.4535C15.5851 23.4346 15.5851 23.3969 15.5851 23.3591Z" fill="#2ADC65"/>
<path d="M28.5474 22.6033C28.5097 22.4523 28.4719 22.2825 28.4153 22.1316C28.3776 21.9995 28.321 21.8485 28.2644 21.7165C28.4908 21.3957 28.5851 20.9995 28.5285 20.6221C28.4719 20.3203 28.3399 20.0372 28.1134 19.8297C27.8682 19.5844 27.3776 19.3203 26.6795 19.1127C26.604 19.0938 26.3399 19.0184 26.321 19.0184C26.3021 19.0184 26.3021 18.1504 26.2832 17.7919C26.2644 17.4334 26.2078 17.075 26.1134 16.7165C25.9814 16.2259 25.7361 15.7542 25.3776 15.3957C26.2832 14.4523 26.8493 13.4146 26.8493 12.5278C26.8493 10.8108 24.7361 10.3014 22.1512 11.3768L21.604 11.6033L20.604 10.6221C17.6418 8.01836 8.39646 18.3014 11.3399 20.7919L11.9814 21.3391C11.8116 21.8108 11.7361 22.3203 11.7927 22.8108C11.887 23.5278 12.2455 24.1882 12.7927 24.6599C13.321 25.1504 14.0191 25.4334 14.755 25.4523C15.9059 28.0938 18.5285 29.7353 21.604 29.8108C24.9059 29.9052 27.6795 28.358 28.8493 25.5655C29.0757 24.9806 29.2078 24.358 29.2455 23.7165C29.2644 22.9429 28.8304 22.6033 28.5474 22.6033ZM15.0191 24.6787C14.9059 24.6976 14.8115 24.7165 14.7172 24.6976C13.7172 24.6787 12.6417 23.7731 12.5285 22.6976C12.4153 21.5278 13.0191 20.6221 14.0757 20.3957C14.2266 20.3769 14.3776 20.3769 14.5285 20.3769C15.1323 20.4146 16.0002 20.8674 16.2078 22.1693C16.3776 23.3391 16.0946 24.4901 15.0191 24.6787ZM13.9059 19.6976C13.2644 19.8297 12.6795 20.1882 12.3021 20.7165C12.0568 20.5278 11.8304 20.3203 11.6229 20.075C11.0568 18.9995 12.2455 16.8863 13.0757 15.6976C15.1323 12.7542 18.3587 10.5278 19.8682 10.924C20.1134 10.9995 20.9248 11.924 20.9248 11.924C19.9059 12.5089 18.9436 13.1693 18.038 13.9052C16.1701 15.358 14.755 17.4334 13.9059 19.6976ZM24.3776 24.2448C24.3964 24.2448 24.4153 24.207 24.4153 24.1882C24.4153 24.1504 24.3964 24.1316 24.3587 24.1316C23.321 24.2636 22.2832 24.1504 21.321 23.8297C21.4908 23.3014 21.9059 23.4901 22.5474 23.5466C23.5474 23.6033 24.5663 23.5089 25.5285 23.2259C26.3399 22.9995 27.0946 22.6221 27.755 22.1127C27.9059 22.4523 28.0002 22.8108 28.0757 23.1693C28.1889 23.1504 28.3021 23.1693 28.3965 23.2259C28.5285 23.3203 28.6418 23.4901 28.5663 23.9617C28.4342 24.8108 28.038 25.5844 27.4342 26.1882C27.0568 26.6033 26.5851 26.9617 26.0757 27.207C25.7927 27.358 25.4908 27.4712 25.1889 27.5844C22.8493 28.358 20.4531 27.5089 19.6795 25.6976C19.6229 25.5655 19.5663 25.4146 19.5285 25.2636C19.2078 24.075 19.4719 22.641 20.3587 21.7542C20.4153 21.6976 20.4531 21.6221 20.4719 21.5466C20.4719 21.4712 20.4342 21.3957 20.3964 21.3391C20.0946 20.9052 19.038 20.1316 19.2455 18.6787C19.3964 17.6221 20.321 16.8863 21.1701 16.924C21.2455 16.924 21.321 16.924 21.3964 16.9429C21.7738 16.9617 22.0946 17.0184 22.3964 17.0184C22.9436 17.0561 23.4908 16.8863 23.9059 16.5089C24.0757 16.358 24.2644 16.2448 24.4908 16.1882C24.5663 16.1693 24.6418 16.1693 24.7172 16.1693C24.8493 16.1693 24.9814 16.207 25.0946 16.2825C25.5285 16.5655 25.5851 17.2825 25.6229 17.7919C25.6418 18.0938 25.6795 18.7919 25.6795 18.9995C25.6983 19.4712 25.8304 19.5278 26.0757 19.6221L26.5285 19.7542C27.1134 19.924 27.4531 20.075 27.6606 20.3014C27.7738 20.4146 27.8493 20.5655 27.8682 20.7165C27.9436 21.207 27.4908 21.8297 26.2832 22.3769C25.0191 22.924 23.6418 23.1504 22.2832 23.0184C22.2078 23.0184 21.9059 22.9806 21.9059 22.9806C21.0191 22.8674 20.5285 23.9995 21.0568 24.7731C21.3964 25.2825 22.321 25.6033 23.2455 25.6033C25.3776 25.6033 27.0191 24.6976 27.6229 23.9052C27.6418 23.8863 27.6606 23.8485 27.6795 23.8297C27.7172 23.792 27.6795 23.7542 27.6418 23.7919C27.1512 24.1316 24.9436 25.4901 22.5663 25.075C22.3776 25.0372 22.1889 24.9806 22.0191 24.924C21.8115 24.8485 21.3776 24.641 21.321 24.1882C23.1889 24.7919 24.3776 24.2636 24.3776 24.2448ZM17.7172 15.6787C18.3964 14.8674 19.2266 14.1882 20.1512 13.6787C20.1701 13.6599 20.2078 13.6976 20.1889 13.7165C20.0946 13.8863 20.0191 14.075 19.9625 14.2636C19.9625 14.3014 19.9814 14.3203 20.0191 14.3014C20.6606 13.8863 21.3964 13.6221 22.1701 13.5466C22.2078 13.5466 22.2266 13.5844 22.1889 13.6033C22.0568 13.6976 21.9436 13.8108 21.8493 13.9429C21.8304 13.9617 21.8493 13.9806 21.8493 13.9995H21.8682C22.4908 14.0184 23.1134 14.1693 23.6606 14.4712C23.6795 14.4712 23.6983 14.5089 23.6795 14.5278C23.6795 14.5466 23.6606 14.5466 23.6418 14.5466C21.604 14.0938 19.4719 14.5089 17.755 15.7165C17.7361 15.7731 17.6795 15.7165 17.7172 15.6787Z" fill="#2ADC65"/>
</svg>
