<svg xmlns="http://www.w3.org/2000/svg" width="31" height="25" fill="none" viewBox="0 0 31 25"><path fill="#606C80" d="M9.67412 25C21.2828 25 27.6311 15.3828 27.6311 7.04302C27.6311 6.76989 27.6255 6.498 27.6132 6.22724C28.8484 5.3335 29.9144 4.22684 30.7614 2.95914C29.6306 3.46185 28.4136 3.80022 27.1372 3.95278C28.4401 3.17137 29.4404 1.93546 29.9124 0.462034C28.6734 1.19702 27.3181 1.71512 25.9048 1.99399C24.7531 0.767269 23.1136 0 21.298 0C17.8127 0 14.9864 2.8264 14.9864 6.31033C14.9864 6.80561 15.0418 7.28736 15.1501 7.74939C9.90473 7.48545 5.25352 4.97409 2.14068 1.15539C1.58003 2.11847 1.28512 3.21312 1.28608 4.32749C1.28608 6.51709 2.40029 8.45008 4.09462 9.58091C3.09241 9.55033 2.11218 9.27963 1.23632 8.79155C1.23539 8.81808 1.23539 8.84388 1.23539 8.87217C1.23539 11.9287 3.41086 14.4806 6.29867 15.0588C5.75629 15.2066 5.19662 15.2813 4.63448 15.281C4.23638 15.2807 3.83921 15.2426 3.44833 15.1671C4.25183 17.6748 6.58171 19.4996 9.34401 19.5506C7.18393 21.2437 4.46282 22.2521 1.50543 22.2521C0.996635 22.2521 0.494034 22.2232 0 22.1647C2.79316 23.9551 6.10977 24.9997 9.67443 24.9997"/></svg>