<svg xmlns="http://www.w3.org/2000/svg" width="82" height="82" fill="none" viewBox="0 0 82 82"><path fill="#000" fill-opacity=".2" d="M41 0C18.7739 0 0 18.7739 0 41C0 63.2261 18.7739 82 41 82C63.2261 82 82 63.2261 82 41C82 18.7739 63.2261 0 41 0ZM41 20.5C48.0807 20.5 53.3 25.7152 53.3 32.8C53.3 39.8848 48.0807 45.1 41 45.1C33.9234 45.1 28.7 39.8848 28.7 32.8C28.7 25.7152 33.9234 20.5 41 20.5ZM20.0654 60.5652C23.7431 55.1532 29.8767 51.5452 36.9 51.5452H45.1C52.1274 51.5452 58.2569 55.1532 61.9346 60.5652C56.6948 66.174 49.2615 69.7 41 69.7C32.7385 69.7 25.3052 66.174 20.0654 60.5652Z"/></svg>