<svg width="37" height="25" viewBox="0 0 37 25" fill="none" xmlns="http://www.w3.org/2000/svg">
<path d="M35.3311 3.90376C34.923 2.36718 33.7207 1.15705 32.1938 0.746368C29.4269 0 18.3307 0 18.3307 0C18.3307 0 7.23466 0 4.46753 0.746368C2.94062 1.15705 1.73806 2.36718 1.33025 3.90376C0.588867 6.68888 0.588867 12.5 0.588867 12.5C0.588867 12.5 0.588867 18.3108 1.33025 21.0962C1.73806 22.633 2.94062 23.8428 4.46738 24.2539C7.23451 25 18.3305 25 18.3305 25C18.3305 25 29.4267 25 32.1937 24.2539C33.7206 23.8429 34.9229 22.633 35.331 21.0964C36.0725 18.311 36.0725 12.5002 36.0725 12.5002C36.0725 12.5002 36.0725 6.68904 35.331 3.90392" fill="#606C80"/>
<path d="M14.7021 17.7746L23.9763 12.4989L14.7021 7.22266V17.7746Z" fill="white"/>
</svg>
