<svg xmlns="http://www.w3.org/2000/svg" width="120" height="120" fill="none" viewBox="0 0 120 120"><rect width="120" height="120" fill="#0F2B53" rx="40"/><path fill="#fff" d="M26 51.3143C26 43.1535 26 39.0731 27.5882 35.9561C28.9852 33.2143 31.2143 30.9852 33.9561 29.5882C37.0731 28 41.1535 28 49.3143 28H70.6857C78.8465 28 82.9269 28 86.0439 29.5882C88.7857 30.9852 91.0148 33.2143 92.4118 35.9561C94 39.0731 94 43.1535 94 51.3143V72.6857C94 80.8465 94 84.9269 92.4118 88.0439C91.0148 90.7857 88.7857 93.0148 86.0439 94.4118C82.9269 96 78.8465 96 70.6857 96H49.3143C41.1535 96 37.0731 96 33.9561 94.4118C31.2143 93.0148 28.9852 90.7857 27.5882 88.0439C26 84.9269 26 80.8465 26 72.6857V51.3143Z"/><path fill="#0F2B53" d="M41.2199 47.4289C39.5209 47.4289 38.1437 48.9822 38.1437 50.8983V67.7248C38.1437 72.6108 41.6557 76.5718 45.988 76.5718L64.2103 76.3983C65.9093 76.3983 67.2865 74.845 67.2865 72.929V55.929C67.2865 51.0429 63.1188 47.429 58.7865 47.429L41.2199 47.4289Z"/><path fill="#0F2B53" d="M71.4447 54.0531C70.3455 55.14 69.7151 56.7087 69.7151 58.3575V65.3986C69.7151 67.0474 70.3455 68.6161 71.4447 69.7031L78.2851 75.7277C79.6769 77.104 81.858 75.9892 81.858 73.9016V50.1857C81.858 48.0981 79.6769 46.9833 78.2851 48.3596L71.4447 54.0531Z"/></svg>