<svg xmlns="http://www.w3.org/2000/svg" width="120" height="120" fill="none" viewBox="0 0 120 120"><rect width="120" height="120" fill="#0F2B53" rx="40"/><path fill="#fff" d="M86.9068 57.4366C90.4446 57.4366 93.3125 54.5687 93.3125 51.0309V51.0309C93.3125 47.4931 90.4443 44.6252 86.9065 44.6252V44.6252C83.3685 44.6252 80.5 47.4934 80.5 51.0315V57.4366H86.9068ZM68.9688 57.4366C72.5068 57.4366 75.375 54.5684 75.375 51.0304V33.094C75.375 29.5559 72.5068 26.6877 68.9688 26.6877V26.6877C65.4307 26.6877 62.5625 29.5559 62.5625 33.094V51.0304C62.5625 54.5684 65.4307 57.4366 68.9688 57.4366V57.4366Z"/><path fill="#fff" d="M33.0932 62.5634C29.5554 62.5634 26.6875 65.4313 26.6875 68.9691V68.9691C26.6875 72.5069 29.5557 75.3748 33.0935 75.3748V75.3748C36.6316 75.3748 39.5 72.5066 39.5 68.9685V62.5634H33.0932ZM51.0312 62.5634C47.4932 62.5634 44.625 65.4316 44.625 68.9696V86.906C44.625 90.4441 47.4932 93.3123 51.0312 93.3123V93.3123C54.5693 93.3123 57.4375 90.4441 57.4375 86.906V68.9696C57.4375 65.4316 54.5693 62.5634 51.0312 62.5634V62.5634Z"/><path fill="#fff" d="M62.5634 86.9068C62.5634 90.4446 65.4313 93.3125 68.9691 93.3125V93.3125C72.5068 93.3125 75.3747 90.4443 75.3747 86.9065V86.9065C75.3748 83.3684 72.5066 80.5 68.9685 80.5L62.5634 80.5L62.5634 86.9068ZM62.5634 68.9687C62.5634 72.5068 65.4315 75.375 68.9696 75.375L86.906 75.375C90.4441 75.375 93.3123 72.5068 93.3123 68.9688V68.9688C93.3123 65.4307 90.4441 62.5625 86.906 62.5625L68.9696 62.5625C65.4315 62.5625 62.5634 65.4307 62.5634 68.9687V68.9687Z"/><path fill="#fff" d="M57.4366 33.0932C57.4366 29.5554 54.5687 26.6875 51.0309 26.6875V26.6875C47.4931 26.6875 44.6252 29.5557 44.6252 33.0935V33.0935C44.6252 36.6316 47.4934 39.5 51.0314 39.5L57.4366 39.5L57.4366 33.0932ZM57.4366 51.0313C57.4366 47.4932 54.5684 44.625 51.0303 44.625L33.0939 44.625C29.5559 44.625 26.6877 47.4932 26.6877 51.0312V51.0312C26.6877 54.5693 29.5559 57.4375 33.0939 57.4375L51.0303 57.4375C54.5684 57.4375 57.4366 54.5693 57.4366 51.0313V51.0313Z"/></svg>