<svg width="120" height="120" viewBox="0 0 120 120" fill="none" xmlns="http://www.w3.org/2000/svg">
<rect width="120" height="120" rx="40" fill="#0F2B53"/>
<path d="M47.4287 54.0917V77.286C47.4287 80.1177 48.1233 82.7829 49.3301 85.1432H65.0413C67.2664 85.1432 69.4287 82.9023 69.4287 80.8877V50.6377L68.5456 50.5717H50.9487C49.0033 50.5717 47.4287 52.1463 47.4287 54.0917" fill="black"/>
<path d="M65.762 41.1429H56.4088C57.7477 45.3481 61.6385 48.4123 66.2868 48.4123C67.39 48.4123 68.4302 48.1955 69.4297 47.8781V44.8106C69.4297 42.7929 67.7797 41.1429 65.762 41.1429" fill="black"/>
<path d="M94.1715 50.5714H78.4792L74.0981 54.1134V71.6788C74.0981 78.2003 79.3844 83.4865 85.9058 83.4865C92.4272 83.4865 97.7135 78.2003 97.7135 71.6788V54.1134C97.7135 52.1586 96.1264 50.5714 94.1715 50.5714" fill="white"/>
<path d="M94.5709 39.5714C94.5709 43.9117 91.054 47.4286 86.7137 47.4286C82.3734 47.4286 78.8566 43.9117 78.8566 39.5714C78.8566 35.2312 82.3734 31.7143 86.7137 31.7143C91.054 31.7143 94.5709 35.2312 94.5709 39.5714" fill="white"/>
<path d="M50.9487 50.5714H78.4801C80.4256 50.5714 82.0001 52.146 82.0001 54.0914V77.2857C82.0001 86.8337 74.2624 94.5714 64.7144 94.5714C55.1664 94.5714 47.4287 86.8337 47.4287 77.2857V54.0914C47.4287 52.146 49.0033 50.5714 50.9487 50.5714" fill="white"/>
<path d="M76.699 38C76.699 43.7514 72.0381 48.4123 66.2867 48.4123C60.5353 48.4123 55.8713 43.7514 55.8713 38C55.8713 32.2486 60.5353 27.5877 66.2867 27.5877C72.0381 27.5877 76.699 32.2486 76.699 38" fill="white"/>
<path opacity="0.5" fill-rule="evenodd" clip-rule="evenodd" d="M56.4089 41.1429H65.762C67.7797 41.1429 69.4297 42.7929 69.4297 44.8106V47.8781C68.4303 48.1955 67.39 48.4123 66.2869 48.4123C61.6386 48.4123 57.7477 45.3481 56.4089 41.1429ZM47.4287 77.2861V54.0918C47.4287 52.1464 49.0033 50.5718 50.9487 50.5718H68.5456L69.4287 50.6378V80.8878C69.4287 82.9024 67.2664 85.1433 65.0413 85.1433H49.3301C48.1233 82.783 47.4287 80.1178 47.4287 77.2861Z" fill="#0F2B53"/>
<path d="M62.6193 82H25.9516C23.937 82 22.287 80.35 22.287 78.3323V41.6677C22.287 39.65 23.937 38 25.9516 38H62.6193C64.637 38 66.287 39.65 66.287 41.6677V78.3323C66.287 80.35 64.637 82 62.6193 82Z" fill="white"/>
<path d="M51.139 52.3866H43.6308V72.5701H38.6965V52.3866H31.1473V47.4272H51.139V52.3866Z" fill="#0F2B53"/>
</svg>
