<svg width="120" height="120" viewBox="0 0 120 120" fill="none" xmlns="http://www.w3.org/2000/svg">
<rect width="120" height="120" rx="40" fill="#0F2B53"/>
<path d="M76.4218 49.2229V41.653C78.4745 40.6908 79.7576 38.6379 79.7576 36.3927V36.2002C79.7576 32.9927 77.1274 30.3625 73.9199 30.3625H73.7274C70.5199 30.3625 67.8896 32.9927 67.8896 36.2002V36.3927C67.8896 38.6379 69.2368 40.6908 71.2896 41.653V49.2229C68.4028 49.6719 65.7085 50.8908 63.3991 52.687L42.6142 36.4569C42.7426 35.9437 42.8708 35.3662 42.8708 34.7889C42.8708 31.1965 39.9199 28.1814 36.2633 28.1172C32.6066 28.0531 29.5274 31.004 29.5274 34.6606C29.5274 38.3172 32.4142 41.3964 36.0708 41.3964C37.2896 41.3964 38.4444 41.1398 39.4708 40.4984L59.9991 56.4719C56.2142 62.1814 56.3426 69.6229 60.2557 75.204L54.0331 81.4267C53.5199 81.2342 53.0067 81.1701 52.4935 81.1701C49.4783 81.1701 47.1048 83.6078 47.1048 86.5587C47.1048 89.5738 49.5426 91.9474 52.4935 91.9474C55.4444 91.9474 57.8821 89.5096 57.8821 86.5587C57.8821 86.0455 57.818 85.5323 57.6255 85.0191L63.784 78.8606C71.0972 84.4417 81.5538 83.0304 87.0708 75.7172C92.5877 68.404 91.2406 57.9474 83.9274 52.4304C81.8104 50.7625 79.1803 49.6719 76.4218 49.2229ZM73.8557 74.1776C69.1085 74.1776 65.3236 70.3927 65.3236 65.6455C65.3236 60.8984 69.1085 57.1134 73.8557 57.1134C78.6028 57.1134 82.3877 60.8984 82.3877 65.6455C82.3877 70.3927 78.6028 74.1776 73.8557 74.1776Z" fill="white"/>
</svg>
