<svg width="120" height="120" viewBox="0 0 120 120" fill="none" xmlns="http://www.w3.org/2000/svg">
<rect width="120" height="120" rx="40" fill="#0F2B53"/>
<path fill-rule="evenodd" clip-rule="evenodd" d="M93.3474 54.3444H73.6391L87.6046 40.3718C86.5605 38.775 85.2553 37.3112 83.9501 35.9805C82.6449 34.6497 81.2092 33.452 79.643 32.2544L65.5471 46.3601V26.5323C63.7197 26.1331 61.8925 26 59.9347 26C58.1075 26 56.1497 26.1331 54.3225 26.5323V46.3601L40.2265 32.2544C38.6602 33.319 37.2246 34.6497 35.9194 35.9805C34.6141 37.3112 33.309 38.775 32.2649 40.3718L46.2303 54.3444H26.5221C26.5221 54.3444 26 58.0705 26 59.9335C26 61.7965 26.1305 63.6595 26.5221 65.5225H46.3609L32.2649 79.6282C34.4837 82.6889 37.2246 85.4834 40.2265 87.6126L54.1919 73.6399V93.4677C56.0192 93.7338 57.977 94 59.8043 94C61.6314 94 63.5892 93.8669 65.4165 93.4677V73.6399L79.3819 87.6126C80.9482 86.548 82.3839 85.3503 83.6891 83.8865C84.9942 82.5558 86.2994 81.0919 87.3436 79.4951L73.6391 65.6556H93.4779C93.739 63.7926 94 61.9295 94 60.0665C93.8695 58.0705 93.739 56.2074 93.3474 54.3444ZM68.4184 60.0665C68.4184 62.5949 67.8964 64.9902 67.1133 67.2525C64.8944 68.0509 62.4146 68.5832 59.9347 68.5832C57.4549 68.5832 54.9751 68.1839 52.7563 67.2525C51.9732 64.9902 51.451 62.5949 51.451 60.0665C51.451 57.5381 51.9732 55.1429 52.7563 52.8806C54.9751 52.0822 57.4549 51.5499 59.9347 51.5499C62.4146 51.5499 64.8944 51.9491 67.1133 52.8806C67.8964 55.0098 68.4184 57.4051 68.4184 60.0665Z" fill="white"/>
</svg>
