<svg width="120" height="120" viewBox="0 0 120 120" fill="none" xmlns="http://www.w3.org/2000/svg">
<rect width="120" height="120" rx="40" fill="#0F2B53"/>
<path d="M84.8786 63.4189C84.8786 64.025 84.6402 64.6064 84.2161 65.035C83.7919 65.4636 83.2167 65.7044 82.6168 65.7044C82.0171 65.7044 81.4417 65.4636 81.0175 65.035C80.5934 64.6064 80.355 64.025 80.355 63.4189V43.0001C80.355 42.3939 80.5934 41.8126 81.0175 41.384C81.4417 40.9553 82.0171 40.7146 82.6168 40.7146C83.2167 40.7146 83.7919 40.9553 84.2161 41.384C84.6402 41.8126 84.8786 42.3939 84.8786 43.0001V63.4189ZM84.0935 77.5666C83.7943 77.8688 75.3831 84.9521 59.9626 84.9521C44.542 84.9521 36.1869 77.9066 35.8318 77.6043C35.608 77.4136 35.4236 77.1801 35.2893 76.9174C35.155 76.6544 35.0733 76.3673 35.049 76.0726C35.0247 75.7778 35.0582 75.4811 35.1476 75.1992C35.237 74.9176 35.3806 74.6566 35.5701 74.431C35.9605 73.9747 36.5136 73.6927 37.1088 73.6466C37.7041 73.6007 38.2932 73.7943 38.7477 74.1855C38.8785 74.2799 46.3924 80.4377 59.9439 80.4377C73.4954 80.4377 81.0655 74.2421 81.1403 74.1855C81.5998 73.7979 82.1909 73.6067 82.7876 73.6524C83.3844 73.6983 83.9402 73.9777 84.3364 74.431C84.7178 74.8806 84.9082 75.4642 84.8661 76.0549C84.8242 76.6455 84.5531 77.1956 84.1122 77.5855L84.0935 77.5666ZM35.028 43.0001C35.0618 42.392 35.3325 41.8222 35.7808 41.4151C36.2291 41.0081 36.8186 40.797 37.4206 40.8279C37.9786 40.8599 38.5051 41.0996 38.8985 41.5007C39.292 41.9018 39.5246 42.4359 39.5514 43.0001V63.3811C39.5514 63.9872 39.3131 64.5686 38.889 64.9972C38.4648 65.4258 37.8896 65.6666 37.2897 65.6666C36.6899 65.6666 36.1146 65.4258 35.6905 64.9972C35.2663 64.5686 35.028 63.9872 35.028 63.3811V43.0001ZM46.3737 38.4668C46.4076 37.8587 46.6782 37.2889 47.1267 36.8818C47.5749 36.4748 48.1644 36.2637 48.7664 36.2946C49.3244 36.3266 49.8508 36.5663 50.2443 36.9674C50.6377 37.3685 50.8704 37.9026 50.8973 38.4668V68.6888C50.8973 69.295 50.6589 69.8764 50.2348 70.305C49.8106 70.7335 49.2354 70.9744 48.6355 70.9744C48.0356 70.9744 47.4604 70.7335 47.0362 70.305C46.6121 69.8764 46.3737 69.295 46.3737 68.6888V38.4668ZM57.7756 37.3335C57.7756 36.7273 58.014 36.146 58.4381 35.7173C58.8623 35.2887 59.4375 35.0479 60.0374 35.0479C60.6371 35.0479 61.2125 35.2887 61.6367 35.7173C62.0608 36.146 62.2992 36.7273 62.2992 37.3335V70.1999C62.2992 70.8061 62.0608 71.3875 61.6367 71.8161C61.2125 72.2446 60.6371 72.4855 60.0374 72.4855C59.4375 72.4855 58.8623 72.2446 58.4381 71.8161C58.014 71.3875 57.7756 70.8061 57.7756 70.1999V37.3335ZM68.9907 38.4668C68.9907 37.8606 69.2289 37.2793 69.6532 36.8507C70.0772 36.422 70.6526 36.1812 71.2523 36.1812C71.8522 36.1812 72.4274 36.422 72.8516 36.8507C73.2757 37.2793 73.5141 37.8606 73.5141 38.4668V68.6888C73.5141 69.295 73.2757 69.8764 72.8516 70.305C72.4274 70.7335 71.8522 70.9744 71.2523 70.9744C70.6526 70.9744 70.0772 70.7335 69.6532 70.305C69.2289 69.8764 68.9907 69.295 68.9907 68.6888V38.4668ZM85.4953 26.0002H34.5047C33.3936 25.9927 32.292 26.2068 31.2629 26.6302C30.2339 27.0535 29.2975 27.6778 28.5076 28.4674C27.7176 29.2569 27.0895 30.1962 26.6592 31.2314C26.2289 32.2666 26.0049 33.3774 26 34.5001V85.4999C26.0049 86.6226 26.2289 87.7334 26.6592 88.7686C27.0895 89.8038 27.7176 90.743 28.5076 91.5326C29.2975 92.3221 30.2339 92.9466 31.2629 93.3699C32.292 93.7932 33.3936 94.0074 34.5047 93.9998H85.4953C86.6048 94.0074 87.7049 93.7937 88.7328 93.3716C89.7606 92.9494 90.6961 92.3268 91.4859 91.5393C92.2756 90.7517 92.9041 89.8148 93.3355 88.7818C93.7669 87.7487 93.9926 86.64 94 85.5187V34.5001C93.9951 33.3789 93.7716 32.2697 93.3427 31.2358C92.9135 30.2018 92.287 29.2634 91.4991 28.4741C90.7111 27.6848 89.777 27.0601 88.75 26.6356C87.723 26.2111 86.6235 25.9952 85.514 26.0002" fill="white"/>
</svg>
