<svg width="120" height="120" viewBox="0 0 120 120" fill="none" xmlns="http://www.w3.org/2000/svg">
<rect width="120" height="120" rx="40" fill="#0F2B53"/>
<path fill-rule="evenodd" clip-rule="evenodd" d="M107 61.1509C107 61.7757 106.948 63.1295 106.948 63.468H94.1794C94.4667 66.5401 96.7122 67.4252 99.245 67.4252C101.83 67.4252 103.867 66.8785 105.642 65.9933V71.2003C103.867 72.1896 101.517 72.8925 98.4094 72.8925C92.0383 72.8925 87.5994 68.9352 87.5994 61.0988C87.5994 54.486 91.3594 49.227 97.5739 49.227C103.762 49.227 107 54.486 107 61.1509V61.1509ZM94.1011 58.6776H100.838C100.838 55.7356 99.1406 54.512 97.5478 54.512C95.9028 54.512 94.1011 55.7356 94.1011 58.6776ZM77.5206 49.227C82.09 49.227 86.3983 53.3405 86.4244 60.8905C86.4244 69.1435 82.1683 72.8925 77.4944 72.8925C75.1967 72.8925 73.8128 71.9292 72.8728 71.2523L72.8467 78.6202L66.3189 80V49.6435H72.0633L72.4028 51.2577C73.3167 50.4246 74.9617 49.227 77.5206 49.227V49.227ZM75.9539 67.1649C78.3561 67.1649 79.975 64.5614 79.975 61.0728C79.975 57.6622 78.33 55.0067 75.9539 55.0067C74.4656 55.0067 73.5256 55.5274 72.8467 56.2824L72.8728 65.9413C73.4994 66.6182 74.4133 67.1649 75.9539 67.1649V67.1649ZM57.3367 47.6909V42.3798L63.8906 41V46.285L57.3367 47.6909V47.6909ZM57.3367 49.6696H63.8906V72.4499H57.3367V49.6696V49.6696ZM50.3128 51.5961C51.8533 48.7844 54.9083 49.3571 55.7439 49.6696V55.6575C54.9344 55.3712 52.3233 55.0067 50.7828 57.0113V72.4499H44.255V49.6696H49.895L50.3128 51.5961V51.5961ZM37.2572 44.02L37.2311 49.6696H42.1922V55.215H37.2311V64.4573C37.2311 68.3104 41.3567 67.1128 42.1922 66.7744V72.0594C41.3306 72.528 39.7639 72.9186 37.6228 72.9186C33.7583 72.9186 30.86 70.0808 30.86 66.2276L30.8861 45.3738L37.2572 44.02V44.02ZM19.6061 56.2824C19.6061 59.1983 29.5544 57.8184 29.5806 65.5768C29.5806 70.237 25.8467 72.9186 20.4156 72.9186C18.17 72.9186 15.7156 72.476 13.2872 71.4346V65.2383C15.4806 66.4359 18.2483 67.3211 20.4156 67.3211C21.8778 67.3211 22.9222 66.9306 22.9222 65.733C22.9222 62.6348 13 63.7804 13 56.5948C13 51.9866 16.525 49.227 21.8256 49.227C23.9928 49.227 26.1339 49.5654 28.3011 50.4246V56.5427C26.3167 55.4753 23.81 54.8765 21.8256 54.8765C20.4417 54.8765 19.6061 55.267 19.6061 56.2824V56.2824Z" fill="white"/>
</svg>
