<svg xmlns="http://www.w3.org/2000/svg" width="120" height="120" fill="none" viewBox="0 0 120 120"><rect width="120" height="120" fill="#0F2B53" rx="40"/><path fill="#fff" d="M48.1928 90.9743L49.3583 83.5708L46.762 83.5106H34.3642L42.98 28.8805C43.0057 28.7136 43.0905 28.5614 43.2189 28.4518C43.3474 28.3422 43.5109 28.2824 43.6798 28.2832H64.5843C71.5242 28.2832 76.3135 29.7274 78.814 32.5778C79.9862 33.915 80.7328 35.3123 81.0939 36.8501C81.4727 38.4636 81.4794 40.3913 81.1095 42.7425L81.0827 42.9141V44.4207L82.255 45.0848C83.1499 45.5382 83.9543 46.1515 84.6285 46.8944C85.6313 48.0377 86.2799 49.4908 86.554 51.2135C86.837 52.9853 86.7434 55.0935 86.2799 57.4804C85.745 60.226 84.8803 62.6173 83.7125 64.5741C82.6821 66.327 81.2968 67.8452 79.6453 69.0313C78.0941 70.1322 76.2511 70.968 74.1673 71.5028C72.1482 72.0288 69.846 72.294 67.321 72.294H65.6941C64.5308 72.294 63.4009 72.713 62.5139 73.464C61.6281 74.2231 61.0406 75.2719 60.8558 76.4236L60.7332 77.09L58.674 90.1386L58.5804 90.6177C58.5558 90.7692 58.5135 90.845 58.4511 90.8963C58.3907 90.9457 58.3152 90.9732 58.2372 90.9743H48.1928Z"/><path fill="#E3E3E3" d="M83.3652 43.0878C83.3028 43.4867 83.2315 43.8945 83.1512 44.3135C80.3944 58.4675 70.9629 63.3571 58.9172 63.3571H52.7841C51.311 63.3571 50.0696 64.4268 49.8401 65.8798L46.7 85.7948L45.8107 91.4399C45.7753 91.6638 45.7888 91.8927 45.8504 92.1109C45.9119 92.3291 46.02 92.5314 46.1672 92.7038C46.3144 92.8762 46.4972 93.0147 46.7031 93.1096C46.9089 93.2046 47.1329 93.2539 47.3596 93.254H58.2375C59.5257 93.254 60.6199 92.318 60.8227 91.0476L60.9297 90.4949L62.9778 77.4976L63.1093 76.7845C63.3099 75.5097 64.4063 74.5737 65.6945 74.5737H67.3214C77.8605 74.5737 86.1109 70.2947 88.5222 57.9125C89.5296 52.7399 89.0081 48.4209 86.3426 45.3832C85.4978 44.4436 84.4889 43.6657 83.3652 43.0878V43.0878Z"/><g filter="url(#filter0_d_332_1962)"><path fill="#D7D7D7" d="M80.481 41.9365C79.6008 41.6819 78.7053 41.4831 77.8 41.3415C76.0111 41.0666 74.2032 40.9347 72.3934 40.947H56.0086C55.385 40.9465 54.7819 41.1692 54.3081 41.5746C53.8344 41.9801 53.5214 42.5417 53.4256 43.1578L49.94 65.2345L49.8398 65.8786C49.9483 65.1758 50.3049 64.5351 50.8449 64.0723C51.3849 63.6096 52.0726 63.3554 52.7838 63.3558H58.9169C70.9626 63.3558 80.3941 58.464 83.1509 44.3122C83.2334 43.8933 83.3025 43.4854 83.3649 43.0865C82.6374 42.705 81.8792 42.3852 81.0984 42.1304C80.8936 42.0625 80.6878 41.9979 80.481 41.9365V41.9365Z"/></g><path fill="#fff" d="M53.4257 43.1581C53.5207 42.5418 53.8336 41.98 54.3075 41.5747C54.7815 41.1694 55.3851 40.9476 56.0087 40.9496H72.3935C74.3346 40.9496 76.1465 41.0766 77.8001 41.344C78.9191 41.5199 80.0227 41.7829 81.1007 42.1307C81.9142 42.4004 82.6697 42.7191 83.3672 43.0868C84.1874 37.8563 83.3605 34.2949 80.5324 31.0701C77.4146 27.5199 71.7873 26 64.5867 26H43.6822C42.2113 26 40.9566 27.0697 40.7293 28.525L32.0221 83.7168C31.9815 83.973 31.997 84.235 32.0673 84.4847C32.1377 84.7344 32.2613 84.9659 32.4296 85.1633C32.598 85.3607 32.8071 85.5192 33.0426 85.6281C33.2781 85.7369 33.5344 85.7935 33.7938 85.7938H46.6998L49.9402 65.2348L53.4257 43.1581Z"/><defs><filter id="filter0_d_332_1962" width="41.525" height="32.932" x="45.84" y="40.946" color-interpolation-filters="sRGB" filterUnits="userSpaceOnUse"><feFlood flood-opacity="0" result="BackgroundImageFix"/><feColorMatrix in="SourceAlpha" result="hardAlpha" type="matrix" values="0 0 0 0 0 0 0 0 0 0 0 0 0 0 0 0 0 0 127 0"/><feOffset dy="4"/><feGaussianBlur stdDeviation="2"/><feComposite in2="hardAlpha" operator="out"/><feColorMatrix type="matrix" values="0 0 0 0 0 0 0 0 0 0 0 0 0 0 0 0 0 0 0.25 0"/><feBlend in2="BackgroundImageFix" mode="normal" result="effect1_dropShadow_332_1962"/><feBlend in="SourceGraphic" in2="effect1_dropShadow_332_1962" mode="normal" result="shape"/></filter></defs></svg>