<svg xmlns="http://www.w3.org/2000/svg" width="35" height="35" fill="none" viewBox="0 0 35 35"><path fill="#2ADC65" d="M34.4521 31.4449V13.5136C34.4366 13.1994 34.196 12.9317 33.8701 12.9317H1.93762C1.50311 12.9317 1.0686 12.9239 0.637969 12.9317C0.618572 12.9317 0.599174 12.9317 0.583656 12.9317C0.269413 12.9317 0.00172424 13.1994 0.00172424 13.5136V32.8686C0.00172424 33.0704 -0.0021553 33.276 0.00172424 33.4777C0.0172424 34.3312 0.684524 34.9908 1.53802 34.9985C2.02297 35.0024 2.51179 34.9985 2.99673 34.9985H32.4696C32.6209 34.9985 32.7761 34.9985 32.9274 34.9985C33.7809 34.9908 34.4482 34.3196 34.4559 33.47C34.4598 32.7949 34.4521 32.1199 34.4521 31.4449ZM25.1334 19.4648C25.1256 19.4687 25.1218 19.4765 25.1179 19.4803C24.7338 19.8877 24.3226 20.2756 23.9269 20.6714L21.4828 23.1155C20.5439 24.0543 19.6089 24.9893 18.6701 25.9281C17.8864 26.7118 17.1105 27.4916 16.3307 28.2675C16.0048 28.5934 15.6828 28.9154 15.357 29.2413C15.0582 29.54 14.5539 29.5361 14.259 29.2413C14.0534 29.0357 13.8517 28.8339 13.6461 28.6283C12.7615 27.7438 11.877 26.8592 10.9963 25.9786C10.4377 25.4199 9.88292 24.8651 9.32427 24.3065C9.01778 24 9.04106 23.5189 9.32427 23.2086C9.60747 22.8982 10.1351 22.9215 10.4222 23.2086C10.6278 23.4142 10.8295 23.6159 11.0351 23.8216C11.9197 24.7061 12.8042 25.5906 13.6849 26.4752C14.0573 26.8476 14.4297 27.22 14.8022 27.5925C15.0233 27.3752 15.2483 27.158 15.4695 26.9407C16.2842 26.126 17.0989 25.3113 17.9136 24.4966C18.8524 23.5577 19.7874 22.6189 20.7262 21.6839C21.506 20.9041 22.2858 20.1243 23.0617 19.3484C23.3876 19.0226 23.7096 18.7006 24.0355 18.3747C24.342 18.0682 24.823 18.0915 25.1334 18.3747C25.4399 18.654 25.4205 19.1777 25.1334 19.4648Z"/><path fill="#2ADC65" d="M34.4521 4.80767C34.4094 3.98909 33.7693 3.3606 32.9468 3.33732C32.9119 3.33732 32.8809 3.33732 32.8459 3.33732H28.0508V1.16478C28.0508 0.555689 27.5154 -0.0262421 26.887 0.000914662C26.2546 0.0280715 25.7231 0.513014 25.7231 1.16478V3.33732H8.7307V1.16478C8.7307 0.555689 8.19532 -0.0262421 7.56683 0.000914662C6.93447 0.0280715 6.40297 0.513014 6.40297 1.16478V3.33732H1.78243C1.53026 3.33732 1.28585 3.32956 1.04144 3.41103C0.405197 3.62829 0.00560379 4.2141 0.00172424 4.8775C-0.0021553 5.07924 0.00172424 5.28097 0.00172424 5.48271V10.7977C0.00172424 11.1119 0.269413 11.3796 0.583656 11.3796H32.5162C32.9507 11.3796 33.3852 11.3874 33.8158 11.3796C33.8352 11.3796 33.8546 11.3796 33.8701 11.3796C34.1844 11.3796 34.4521 11.1119 34.4521 10.7977V4.84646C34.4521 4.83483 34.4521 4.81931 34.4521 4.80767Z"/></svg>