<svg xmlns="http://www.w3.org/2000/svg" width="35" height="35" fill="none" viewBox="0 0 35 35"><path fill="#2ADC65" d="M0 13.75V33.75C0 34.0815 0.131696 34.3995 0.366116 34.6339C0.600537 34.8683 0.918479 35 1.25 35H33.75C34.0815 35 34.3995 34.8683 34.6339 34.6339C34.8683 34.3995 35 34.0815 35 33.75V13.75H0ZM8.75 30.4687H6.25C6.00136 30.4687 5.7629 30.37 5.58709 30.1942C5.41127 30.0183 5.3125 29.7799 5.3125 29.5312C5.3125 29.2826 5.41127 29.0442 5.58709 28.8683C5.7629 28.6925 6.00136 28.5937 6.25 28.5937H8.75C8.99864 28.5937 9.2371 28.6925 9.41291 28.8683C9.58873 29.0442 9.6875 29.2826 9.6875 29.5312C9.6875 29.7799 9.58873 30.0183 9.41291 30.1942C9.2371 30.37 8.99864 30.4687 8.75 30.4687ZM8.75 25.4687H6.25C6.00136 25.4687 5.7629 25.37 5.58709 25.1942C5.41127 25.0183 5.3125 24.7799 5.3125 24.5312C5.3125 24.2826 5.41127 24.0442 5.58709 23.8683C5.7629 23.6925 6.00136 23.5937 6.25 23.5937H8.75C8.99864 23.5937 9.2371 23.6925 9.41291 23.8683C9.58873 24.0442 9.6875 24.2826 9.6875 24.5312C9.6875 24.7799 9.58873 25.0183 9.41291 25.1942C9.2371 25.37 8.99864 25.4687 8.75 25.4687ZM8.75 20.4687H6.25C6.00136 20.4687 5.7629 20.37 5.58709 20.1942C5.41127 20.0183 5.3125 19.7799 5.3125 19.5312C5.3125 19.2826 5.41127 19.0442 5.58709 18.8683C5.7629 18.6925 6.00136 18.5937 6.25 18.5937H8.75C8.99864 18.5937 9.2371 18.6925 9.41291 18.8683C9.58873 19.0442 9.6875 19.2826 9.6875 19.5312C9.6875 19.7799 9.58873 20.0183 9.41291 20.1942C9.2371 20.37 8.99864 20.4687 8.75 20.4687ZM18.75 30.4687H16.25C16.0014 30.4687 15.7629 30.37 15.5871 30.1942C15.4113 30.0183 15.3125 29.7799 15.3125 29.5312C15.3125 29.2826 15.4113 29.0442 15.5871 28.8683C15.7629 28.6925 16.0014 28.5937 16.25 28.5937H18.75C18.9986 28.5937 19.2371 28.6925 19.4129 28.8683C19.5887 29.0442 19.6875 29.2826 19.6875 29.5312C19.6875 29.7799 19.5887 30.0183 19.4129 30.1942C19.2371 30.37 18.9986 30.4687 18.75 30.4687ZM18.75 25.4687H16.25C16.0014 25.4687 15.7629 25.37 15.5871 25.1942C15.4113 25.0183 15.3125 24.7799 15.3125 24.5312C15.3125 24.2826 15.4113 24.0442 15.5871 23.8683C15.7629 23.6925 16.0014 23.5937 16.25 23.5937H18.75C18.9986 23.5937 19.2371 23.6925 19.4129 23.8683C19.5887 24.0442 19.6875 24.2826 19.6875 24.5312C19.6875 24.7799 19.5887 25.0183 19.4129 25.1942C19.2371 25.37 18.9986 25.4687 18.75 25.4687ZM18.75 20.4687H16.25C16.0014 20.4687 15.7629 20.37 15.5871 20.1942C15.4113 20.0183 15.3125 19.7799 15.3125 19.5312C15.3125 19.2826 15.4113 19.0442 15.5871 18.8683C15.7629 18.6925 16.0014 18.5937 16.25 18.5937H18.75C18.9986 18.5937 19.2371 18.6925 19.4129 18.8683C19.5887 19.0442 19.6875 19.2826 19.6875 19.5312C19.6875 19.7799 19.5887 20.0183 19.4129 20.1942C19.2371 20.37 18.9986 20.4687 18.75 20.4687ZM28.75 30.4687H26.25C26.0014 30.4687 25.7629 30.37 25.5871 30.1942C25.4113 30.0183 25.3125 29.7799 25.3125 29.5312C25.3125 29.2826 25.4113 29.0442 25.5871 28.8683C25.7629 28.6925 26.0014 28.5937 26.25 28.5937H28.75C28.9986 28.5937 29.2371 28.6925 29.4129 28.8683C29.5887 29.0442 29.6875 29.2826 29.6875 29.5312C29.6875 29.7799 29.5887 30.0183 29.4129 30.1942C29.2371 30.37 28.9986 30.4687 28.75 30.4687ZM28.75 25.4687H26.25C26.0014 25.4687 25.7629 25.37 25.5871 25.1942C25.4113 25.0183 25.3125 24.7799 25.3125 24.5312C25.3125 24.2826 25.4113 24.0442 25.5871 23.8683C25.7629 23.6925 26.0014 23.5937 26.25 23.5937H28.75C28.9986 23.5937 29.2371 23.6925 29.4129 23.8683C29.5887 24.0442 29.6875 24.2826 29.6875 24.5312C29.6875 24.7799 29.5887 25.0183 29.4129 25.1942C29.2371 25.37 28.9986 25.4687 28.75 25.4687ZM28.75 20.4687H26.25C26.0014 20.4687 25.7629 20.37 25.5871 20.1942C25.4113 20.0183 25.3125 19.7799 25.3125 19.5312C25.3125 19.2826 25.4113 19.0442 25.5871 18.8683C25.7629 18.6925 26.0014 18.5937 26.25 18.5937H28.75C28.9986 18.5937 29.2371 18.6925 29.4129 18.8683C29.5887 19.0442 29.6875 19.2826 29.6875 19.5312C29.6875 19.7799 29.5887 20.0183 29.4129 20.1942C29.2371 20.37 28.9986 20.4687 28.75 20.4687Z"/><path fill="#2ADC65" d="M35 11.875V6.25C35 5.91848 34.8683 5.60054 34.6339 5.36612C34.3995 5.1317 34.0815 5 33.75 5H30V1.25C30 0.918479 29.8683 0.600537 29.6339 0.366116C29.3995 0.131696 29.0815 0 28.75 0C28.4185 0 28.1005 0.131696 27.8661 0.366116C27.6317 0.600537 27.5 0.918479 27.5 1.25V5H18.75V1.25C18.75 0.918479 18.6183 0.600537 18.3839 0.366116C18.1495 0.131696 17.8315 0 17.5 0C17.1685 0 16.8505 0.131696 16.6161 0.366116C16.3817 0.600537 16.25 0.918479 16.25 1.25V5H7.5V1.25C7.5 0.918479 7.3683 0.600537 7.13388 0.366116C6.89946 0.131696 6.58152 0 6.25 0C5.91848 0 5.60054 0.131696 5.36612 0.366116C5.1317 0.600537 5 0.918479 5 1.25V5H1.25C0.918479 5 0.600537 5.1317 0.366116 5.36612C0.131696 5.60054 0 5.91848 0 6.25V11.875H35Z"/></svg>