<svg xmlns="http://www.w3.org/2000/svg" width="32" height="35" fill="none" viewBox="0 0 32 35"><path fill="#2ADC65" d="M17.8052 21.1934H13.6008V23.5665H17.8052V21.1934Z"/><path fill="#2ADC65" d="M23.6075 21.1934H20.041V23.5665H23.6075V21.1934Z"/><path fill="#2ADC65" d="M11.358 21.1934H7.7915V23.5665H11.358V21.1934Z"/><path fill="#2ADC65" d="M27.6749 9.12208H21.7147L23.4568 5.92593C23.4636 5.92593 23.4705 5.92593 23.4774 5.92593C25.1097 5.92593 26.4403 4.59534 26.4403 2.96296C26.4403 1.33059 25.1097 0.00685871 23.4774 0.00685871C21.845 0.00685871 20.5144 1.33059 20.5144 2.96296C20.5144 3.77915 20.8436 4.51303 21.3786 5.04801L19.1632 9.11523H12.2359L10.0206 5.04801C10.5556 4.51303 10.8848 3.77229 10.8848 2.96296C10.8848 1.33059 9.55418 0 7.92181 0C6.28944 0 4.96571 1.33059 4.96571 2.96296C4.96571 4.59534 6.2963 5.92593 7.92867 5.92593C7.93553 5.92593 7.94239 5.92593 7.94925 5.92593L9.69136 9.12208H3.72428C1.67353 9.12208 0 10.7956 0 12.8464V27.0988C0 29.1495 1.67353 30.823 3.72428 30.823H18.7586V32.8189C18.7586 33.738 19.3141 34.5405 20.1783 34.8628C20.4321 34.9588 20.6927 35 20.9465 35C21.5638 35 22.1674 34.7325 22.5926 34.2387L25.5418 30.8162H27.668C29.7188 30.8162 31.3923 29.1427 31.3923 27.0919V12.8464C31.3992 10.7888 29.7257 9.12208 27.6749 9.12208ZM19.1632 14.0535H22.3114C22.9287 14.0535 23.4294 14.5542 23.4294 15.1715C23.4294 15.7888 22.9287 16.2894 22.3114 16.2894H19.1632C18.546 16.2894 18.0453 15.7888 18.0453 15.1715C18.0453 14.5542 18.5391 14.0535 19.1632 14.0535ZM9.09465 14.0535H12.2428C12.8601 14.0535 13.3608 14.5542 13.3608 15.1715C13.3608 15.7888 12.8601 16.2894 12.2428 16.2894H9.09465C8.47737 16.2894 7.97668 15.7888 7.97668 15.1715C7.97668 14.5542 8.47051 14.0535 9.09465 14.0535ZM25.8505 24.6914C25.8505 25.3086 25.3498 25.8093 24.7325 25.8093H18.9232H12.476H6.66667C6.04938 25.8093 5.5487 25.3086 5.5487 24.6914V20.0754C5.5487 19.4582 6.04938 18.9575 6.66667 18.9575H12.476H18.9232H24.7325C25.3498 18.9575 25.8505 19.4582 25.8505 20.0754V24.6914Z"/></svg>