<svg width="34" height="35" viewBox="0 0 34 35" fill="none" xmlns="http://www.w3.org/2000/svg">
<path fill-rule="evenodd" clip-rule="evenodd" d="M3.27913 28.7075V11.4855C3.27913 10.5118 4.07686 9.71356 5.05057 9.71356H12.21V13.3978C12.21 13.5713 12.2205 13.7418 12.2411 13.9092H7.47432V28.7075H12.5189V30.5857H21.168V28.7075H26.2125V18.651C26.4412 18.3431 26.6522 18.0192 26.8448 17.6818H30.0467C30.1685 17.6818 30.2884 17.6762 30.4082 17.6662V28.7075H33.6868V32.7813C33.6868 34.0042 32.67 35 31.4531 35H2.23372C1.01683 35 0 34.0042 0 32.7813V28.7075H3.27913ZM16.4939 0H30.0467C31.782 0 33.2025 1.41945 33.2025 3.15579V13.3978C33.2025 15.1337 31.782 16.5541 30.0467 16.5541H26.1599C24.2034 20.7017 19.6467 21.6132 19.6467 21.6132C19.6467 21.6132 21.5124 18.5898 21.1765 16.5541H16.4939C14.7581 16.5541 13.3377 15.1337 13.3377 13.3978V3.15579C13.3377 1.41945 14.7581 0 16.4939 0ZM19.2571 6.09347C20.5638 6.09347 21.6232 7.15343 21.6232 8.46057C21.6232 9.76671 20.5638 10.8267 19.2571 10.8267C17.95 10.8267 16.8906 9.76671 16.8906 8.46057C16.8906 7.15343 17.95 6.09347 19.2571 6.09347ZM27.2835 6.09347C28.5901 6.09347 29.6501 7.15343 29.6501 8.46057C29.6501 9.76671 28.5901 10.8267 27.2835 10.8267C25.9764 10.8267 24.9174 9.76671 24.9174 8.46057C24.9174 7.15343 25.9764 6.09347 27.2835 6.09347Z" fill="#2ADC65"/>
</svg>
