<svg width="40" height="35" viewBox="0 0 40 35" fill="none" xmlns="http://www.w3.org/2000/svg">
<path d="M19.9049 24.1278C24.8391 24.1278 28.8117 21.1171 28.8117 17.3955C28.8117 13.6738 24.7973 10.6631 19.9049 10.6631C14.9706 10.6631 10.998 13.6738 10.998 17.3955C10.998 19.1936 11.918 20.7826 13.4234 21.9952L12.5034 24.8805C12.2943 25.5496 13.047 26.0932 13.6325 25.7168L16.8523 23.6679C17.7722 24.0024 18.8176 24.1278 19.9049 24.1278ZM24.2955 16.0155C25.09 16.0155 25.7173 16.6428 25.7173 17.4373C25.7173 18.2318 25.09 18.859 24.2955 18.859C23.501 18.859 22.8738 18.2318 22.8738 17.4373C22.8738 16.6428 23.501 16.0155 24.2955 16.0155ZM19.9049 16.0155C20.6994 16.0155 21.3266 16.6428 21.3266 17.4373C21.3266 18.2318 20.6994 18.859 19.9049 18.859C19.1104 18.859 18.4831 18.2318 18.4831 17.4373C18.4831 16.6428 19.1104 16.0155 19.9049 16.0155ZM15.5142 18.8172C14.7197 18.8172 14.0924 18.19 14.0924 17.3955C14.0924 16.601 14.7197 15.9737 15.5142 15.9737C16.3087 15.9737 16.9359 16.601 16.9359 17.3955C16.9359 18.19 16.3087 18.8172 15.5142 18.8172Z" fill="#2ADC65"/>
<path d="M36.5472 12.963H35.2509C33.9964 5.60334 27.5567 0 19.8626 0C12.1685 0 5.77061 5.60334 4.47431 12.963H3.21983C1.46356 12.963 0 14.4265 0 16.1828V21.5771C0 22.4552 0.334528 23.2497 0.961768 23.8769C1.58901 24.4624 2.38351 24.7969 3.21983 24.7969H6.10514C6.94146 24.7969 7.61051 24.1278 7.61051 23.2915V15.5974C7.61051 8.865 13.0884 3.3871 19.8208 3.3871C26.5532 3.3871 32.0311 8.865 32.0311 15.5974V26.0932C32.0311 28.853 29.773 31.1111 27.0131 31.1111H24.2533C24.0442 30.233 23.2915 29.6057 22.3297 29.6057H17.3536C16.2246 29.6057 15.3465 30.5257 15.3465 31.6129V32.9928C15.3465 34.1219 16.2664 35 17.3536 35H22.4134C23.3333 35 24.086 34.3309 24.3369 33.4946H27.0968C31.1529 33.4946 34.4982 30.1912 34.4982 26.0932V24.7551H36.5472C37.3835 24.7551 38.2198 24.4205 38.8053 23.8351C39.4325 23.2079 39.767 22.4134 39.767 21.5352V16.1828C39.767 14.4265 38.3453 13.0048 36.5472 12.963Z" fill="#2ADC65"/>
</svg>
