<svg width="37" height="35" viewBox="0 0 37 35" fill="none" xmlns="http://www.w3.org/2000/svg">
<path d="M16.2499 30.625C16.2499 30.4592 16.3157 30.3003 16.4329 30.1831C16.5502 30.0658 16.7091 30 16.8749 30H32.4999V3.75C32.4987 2.75579 32.1033 1.80262 31.4003 1.09961C30.6973 0.396591 29.7441 0.00113725 28.7499 0H7.05176C7.58535 0.468236 8.01285 1.04497 8.30569 1.69166C8.59853 2.33835 8.74997 3.0401 8.74988 3.75V31.25C8.75102 32.2442 9.14647 33.1974 9.84949 33.9004C10.5525 34.6034 11.5057 34.9989 12.4999 35C13.4944 35 14.4483 34.6049 15.1515 33.9017C15.8548 33.1984 16.2499 32.2446 16.2499 31.25V30.625ZM29.3749 28.125H19.9999C19.8341 28.125 19.6752 28.0592 19.5579 27.9419C19.4407 27.8247 19.3749 27.6658 19.3749 27.5C19.3749 27.3342 19.4407 27.1753 19.5579 27.0581C19.6752 26.9408 19.8341 26.875 19.9999 26.875H29.3749C29.5406 26.875 29.6996 26.9408 29.8168 27.0581C29.934 27.1753 29.9999 27.3342 29.9999 27.5C29.9999 27.6658 29.934 27.8247 29.8168 27.9419C29.6996 28.0592 29.5406 28.125 29.3749 28.125ZM24.9999 25.625C24.011 25.625 23.0443 25.3318 22.222 24.7823C21.3998 24.2329 20.7589 23.452 20.3805 22.5384C20.002 21.6248 19.903 20.6195 20.096 19.6495C20.2889 18.6796 20.7651 17.7887 21.4644 17.0895C22.1636 16.3902 23.0545 15.914 24.0244 15.7211C24.9943 15.5281 25.9997 15.6272 26.9133 16.0056C27.8269 16.384 28.6078 17.0249 29.1572 17.8471C29.7066 18.6694 29.9999 19.6361 29.9999 20.625C29.9984 21.9506 29.4711 23.2215 28.5338 24.1589C27.5964 25.0962 26.3255 25.6235 24.9999 25.625V25.625ZM24.9999 2.5C24.9999 2.33424 25.0657 2.17527 25.1829 2.05806C25.3002 1.94085 25.4591 1.875 25.6249 1.875H26.2499C26.9129 1.875 27.5488 2.13839 28.0177 2.60723C28.4865 3.07607 28.7499 3.71196 28.7499 4.375C28.7499 5.03804 28.4865 5.67393 28.0177 6.14277C27.5488 6.61161 26.9129 6.875 26.2499 6.875H25.6249C25.4591 6.875 25.3002 6.80915 25.1829 6.69194C25.0657 6.57473 24.9999 6.41576 24.9999 6.25V2.5ZM22.4999 2.5C22.4999 2.33424 22.5657 2.17527 22.6829 2.05806C22.8002 1.94085 22.9591 1.875 23.1249 1.875C23.2906 1.875 23.4496 1.94085 23.5668 2.05806C23.684 2.17527 23.7499 2.33424 23.7499 2.5V6.25C23.7499 6.41576 23.684 6.57473 23.5668 6.69194C23.4496 6.80915 23.2906 6.875 23.1249 6.875C22.9591 6.875 22.8002 6.80915 22.6829 6.69194C22.5657 6.57473 22.4999 6.41576 22.4999 6.25V2.5ZM17.4999 5.625C17.4999 5.54549 17.515 5.46671 17.5446 5.39289L18.7946 2.26789C18.841 2.1519 18.921 2.05248 19.0245 1.98244C19.1279 1.91241 19.25 1.87497 19.3749 1.87497C19.4998 1.87497 19.6219 1.91241 19.7253 1.98244C19.8287 2.05248 19.9088 2.1519 19.9552 2.26789L21.2052 5.39289C21.2347 5.46671 21.2499 5.54549 21.2499 5.625V6.25C21.2499 6.41576 21.184 6.57473 21.0668 6.69194C20.9496 6.80915 20.7906 6.875 20.6249 6.875C20.4591 6.875 20.3002 6.80915 20.1829 6.69194C20.0657 6.57473 19.9999 6.41576 19.9999 6.25H18.7499C18.7499 6.41576 18.684 6.57473 18.5668 6.69194C18.4496 6.80915 18.2906 6.875 18.1249 6.875C17.9591 6.875 17.8002 6.80915 17.6829 6.69194C17.5657 6.57473 17.4999 6.41576 17.4999 6.25V5.625ZM13.1249 2.5C13.1249 2.33424 13.1907 2.17527 13.3079 2.05806C13.4252 1.94085 13.5841 1.875 13.7499 1.875H14.9999C15.4972 1.875 15.9741 2.07254 16.3257 2.42417C16.6773 2.77581 16.8749 3.25272 16.8749 3.75C16.8749 4.24728 16.6773 4.72419 16.3257 5.07583C15.9741 5.42746 15.4972 5.625 14.9999 5.625H14.3749V6.25C14.3749 6.41576 14.309 6.57473 14.1918 6.69194C14.0746 6.80915 13.9156 6.875 13.7499 6.875C13.5841 6.875 13.4252 6.80915 13.3079 6.69194C13.1907 6.57473 13.1249 6.41576 13.1249 6.25V2.5ZM11.8749 8.75C11.8749 8.58424 11.9407 8.42527 12.0579 8.30806C12.1752 8.19085 12.3341 8.125 12.4999 8.125H28.7499C28.9156 8.125 29.0746 8.19085 29.1918 8.30806C29.309 8.42527 29.3749 8.58424 29.3749 8.75V11.25C29.3749 11.4158 29.309 11.5747 29.1918 11.6919C29.0746 11.8092 28.9156 11.875 28.7499 11.875H12.4999C12.3341 11.875 12.1752 11.8092 12.0579 11.6919C11.9407 11.5747 11.8749 11.4158 11.8749 11.25V8.75ZM12.4999 13.125H28.7499C28.9156 13.125 29.0746 13.1908 29.1918 13.3081C29.309 13.4253 29.3749 13.5842 29.3749 13.75C29.3749 13.9158 29.309 14.0747 29.1918 14.1919C29.0746 14.3092 28.9156 14.375 28.7499 14.375H12.4999C12.3341 14.375 12.1752 14.3092 12.0579 14.1919C11.9407 14.0747 11.8749 13.9158 11.8749 13.75C11.8749 13.5842 11.9407 13.4253 12.0579 13.3081C12.1752 13.1908 12.3341 13.125 12.4999 13.125ZM12.4999 15.625H18.1249C18.2906 15.625 18.4496 15.6908 18.5668 15.8081C18.684 15.9253 18.7499 16.0842 18.7499 16.25C18.7499 16.4158 18.684 16.5747 18.5668 16.6919C18.4496 16.8092 18.2906 16.875 18.1249 16.875H12.4999C12.3341 16.875 12.1752 16.8092 12.0579 16.6919C11.9407 16.5747 11.8749 16.4158 11.8749 16.25C11.8749 16.0842 11.9407 15.9253 12.0579 15.8081C12.1752 15.6908 12.3341 15.625 12.4999 15.625ZM12.4999 18.125H18.1249C18.2906 18.125 18.4496 18.1908 18.5668 18.3081C18.684 18.4253 18.7499 18.5842 18.7499 18.75C18.7499 18.9158 18.684 19.0747 18.5668 19.1919C18.4496 19.3092 18.2906 19.375 18.1249 19.375H12.4999C12.3341 19.375 12.1752 19.3092 12.0579 19.1919C11.9407 19.0747 11.8749 18.9158 11.8749 18.75C11.8749 18.5842 11.9407 18.4253 12.0579 18.3081C12.1752 18.1908 12.3341 18.125 12.4999 18.125ZM12.4999 21.875C12.3341 21.875 12.1752 21.8092 12.0579 21.6919C11.9407 21.5747 11.8749 21.4158 11.8749 21.25C11.8749 21.0842 11.9407 20.9253 12.0579 20.8081C12.1752 20.6908 12.3341 20.625 12.4999 20.625H18.1249C18.2906 20.625 18.4496 20.6908 18.5668 20.8081C18.684 20.9253 18.7499 21.0842 18.7499 21.25C18.7499 21.4158 18.684 21.5747 18.5668 21.6919C18.4496 21.8092 18.2906 21.875 18.1249 21.875H12.4999Z" fill="#2ADC65"/>
<path d="M16.0361 34.7855C15.962 34.8597 15.886 34.9311 15.8081 35H32.5005C33.5522 34.9987 34.5684 34.6191 35.3634 33.9307C36.1585 33.2422 36.6794 32.2907 36.8311 31.25H17.5005C17.5023 31.9069 17.3738 32.5576 17.1224 33.1645C16.8711 33.7713 16.5018 34.3223 16.0361 34.7855V34.7855Z" fill="#2ADC65"/>
<path d="M19.3757 4.18311L19.0488 5.00021H19.7026L19.3757 4.18311Z" fill="#2ADC65"/>
<path d="M27.5 4.375C27.4996 4.0436 27.3678 3.72589 27.1335 3.49155C26.8991 3.25722 26.5814 3.12539 26.25 3.125V5.625C26.5814 5.62461 26.8991 5.49278 27.1335 5.25845C27.3678 5.02411 27.4996 4.7064 27.5 4.375V4.375Z" fill="#2ADC65"/>
<path d="M28.125 9.375H13.125V10.625H28.125V9.375Z" fill="#2ADC65"/>
<path d="M15.6248 3.75C15.6246 3.5843 15.5587 3.42543 15.4415 3.30826C15.3243 3.19109 15.1655 3.12519 14.9998 3.125H14.3748V4.375H14.9998C15.1655 4.37481 15.3243 4.30891 15.4415 4.19174C15.5587 4.07457 15.6246 3.9157 15.6248 3.75V3.75Z" fill="#2ADC65"/>
<path d="M24.999 16.875C24.2573 16.875 23.5323 17.0949 22.9156 17.507C22.299 17.919 21.8183 18.5047 21.5345 19.1899C21.2506 19.8752 21.1764 20.6292 21.3211 21.3566C21.4658 22.084 21.8229 22.7522 22.3474 23.2767C22.8718 23.8011 23.54 24.1583 24.2674 24.3029C24.9949 24.4476 25.7489 24.3734 26.4341 24.0895C27.1193 23.8057 27.705 23.3251 28.117 22.7084C28.5291 22.0917 28.749 21.3667 28.749 20.625C28.7479 19.6308 28.3524 18.6776 27.6494 17.9746C26.9464 17.2716 25.9932 16.8761 24.999 16.875V16.875ZM26.249 21.25C26.2487 21.4691 26.1908 21.6843 26.0811 21.8741C25.9714 22.0638 25.8138 22.2213 25.624 22.3309V22.5C25.624 22.6658 25.5582 22.8247 25.441 22.9419C25.3238 23.0592 25.1648 23.125 24.999 23.125C24.8333 23.125 24.6743 23.0592 24.5571 22.9419C24.4399 22.8247 24.374 22.6658 24.374 22.5C24.2083 22.5 24.0493 22.4342 23.9321 22.3169C23.8149 22.1997 23.749 22.0408 23.749 21.875C23.749 21.7092 23.8149 21.5503 23.9321 21.4331C24.0493 21.3158 24.2083 21.25 24.374 21.25H24.999C24.7239 21.2503 24.4565 21.1597 24.2381 20.9923C24.0198 20.825 23.8628 20.5903 23.7915 20.3246C23.7203 20.0588 23.7388 19.7771 23.8441 19.5229C23.9494 19.2688 24.1357 19.0565 24.374 18.9191V18.75C24.374 18.5842 24.4399 18.4253 24.5571 18.3081C24.6743 18.1908 24.8333 18.125 24.999 18.125C25.1648 18.125 25.3238 18.1908 25.441 18.3081C25.5582 18.4253 25.624 18.5842 25.624 18.75C25.7898 18.75 25.9488 18.8158 26.066 18.9331C26.1832 19.0503 26.249 19.2092 26.249 19.375C26.249 19.5408 26.1832 19.6997 26.066 19.8169C25.9488 19.9342 25.7898 20 25.624 20H24.999C25.3304 20.0004 25.6481 20.1322 25.8825 20.3665C26.1168 20.6009 26.2486 20.9186 26.249 21.25V21.25Z" fill="#2ADC65"/>
<path d="M3.75 0C2.75579 0.00113725 1.80262 0.396591 1.09961 1.09961C0.396591 1.80262 0.00113725 2.75579 0 3.75V5H7.5V3.75C7.49886 2.75579 7.10341 1.80262 6.40039 1.09961C5.69738 0.396591 4.74421 0.00113725 3.75 0V0Z" fill="#2ADC65"/>
</svg>
