<svg width="32" height="35" viewBox="0 0 32 35" fill="none" xmlns="http://www.w3.org/2000/svg">
<path d="M10.0685 0C7.6655 0 5.75342 1.91208 5.75342 4.31507V27.3288H20.3767C20.5674 27.3288 20.7504 27.4046 20.8852 27.5394C21.0201 27.6743 21.0959 27.8572 21.0959 28.0479V30.9247C21.0959 32.9146 22.497 34.5352 24.3622 34.9101C24.4416 34.9272 24.5176 34.9576 24.5869 35H25.1712C27.4414 35 29.2466 33.1948 29.2466 30.9247V4.31507C29.2466 2.57184 30.0727 1.05553 31.2992 0H10.0685ZM9.64897 7.19178C9.65896 7.19157 9.66895 7.19157 9.67894 7.19178C9.72874 7.18656 9.77896 7.18656 9.82877 7.19178H16.5411C16.6364 7.19043 16.731 7.20804 16.8194 7.24358C16.9079 7.27911 16.9884 7.33187 17.0562 7.39879C17.1241 7.4657 17.178 7.54544 17.2148 7.63337C17.2516 7.72129 17.2705 7.81565 17.2705 7.91096C17.2705 8.00627 17.2516 8.10063 17.2148 8.18855C17.178 8.27648 17.1241 8.35621 17.0562 8.42313C16.9884 8.49004 16.9079 8.5428 16.8194 8.57834C16.731 8.61388 16.6364 8.63148 16.5411 8.63014H9.82877C9.73432 8.64194 9.63848 8.63503 9.54671 8.60979C9.45493 8.58456 9.36903 8.5415 9.2939 8.48306C9.14217 8.36505 9.04353 8.19159 9.01969 8.00086C8.99585 7.81012 9.04875 7.61772 9.16677 7.46599C9.28478 7.31426 9.45823 7.21562 9.64897 7.19178ZM9.64897 11.9863C9.65896 11.9861 9.66895 11.9861 9.67894 11.9863C9.72874 11.9811 9.77896 11.9811 9.82877 11.9863H25.1712C25.2665 11.985 25.3612 12.0026 25.4496 12.0381C25.538 12.0736 25.6185 12.1264 25.6864 12.1933C25.7543 12.2602 25.8081 12.34 25.8449 12.4279C25.8817 12.5158 25.9007 12.6102 25.9007 12.7055C25.9007 12.8008 25.8817 12.8951 25.8449 12.9831C25.8081 13.071 25.7543 13.1507 25.6864 13.2176C25.6185 13.2846 25.538 13.3373 25.4496 13.3729C25.3612 13.4084 25.2665 13.426 25.1712 13.4247H9.82877C9.73432 13.4365 9.63848 13.4296 9.54671 13.4043C9.45493 13.3791 9.36903 13.336 9.2939 13.2776C9.14217 13.1596 9.04353 12.9861 9.01969 12.7954C8.99585 12.6046 9.04875 12.4122 9.16677 12.2605C9.28478 12.1088 9.45823 12.0101 9.64897 11.9863ZM9.64897 16.7808C9.65896 16.7806 9.66895 16.7806 9.67894 16.7808C9.72874 16.7756 9.77896 16.7756 9.82877 16.7808H25.1712C25.2665 16.7795 25.3612 16.7971 25.4496 16.8326C25.538 16.8682 25.6185 16.9209 25.6864 16.9878C25.7543 17.0547 25.8081 17.1345 25.8449 17.2224C25.8817 17.3103 25.9007 17.4047 25.9007 17.5C25.9007 17.5953 25.8817 17.6897 25.8449 17.7776C25.8081 17.8655 25.7543 17.9453 25.6864 18.0122C25.6185 18.0791 25.538 18.1318 25.4496 18.1674C25.3612 18.2029 25.2665 18.2205 25.1712 18.2192H9.82877C9.63803 18.243 9.44563 18.1901 9.2939 18.0721C9.14217 17.9541 9.04353 17.7806 9.01969 17.5899C8.99585 17.3992 9.04875 17.2068 9.16677 17.055C9.28478 16.9033 9.45823 16.8047 9.64897 16.7808ZM9.64897 21.5753C9.65896 21.5751 9.66895 21.5751 9.67894 21.5753C9.72874 21.5701 9.77896 21.5701 9.82877 21.5753H16.5411C16.6364 21.574 16.731 21.5916 16.8194 21.6271C16.9079 21.6627 16.9884 21.7154 17.0562 21.7824C17.1241 21.8493 17.178 21.929 17.2148 22.0169C17.2516 22.1049 17.2705 22.1992 17.2705 22.2945C17.2705 22.3898 17.2516 22.4842 17.2148 22.5721C17.178 22.66 17.1241 22.7398 17.0562 22.8067C16.9884 22.8736 16.9079 22.9264 16.8194 22.9619C16.731 22.9974 16.6364 23.015 16.5411 23.0137H9.82877C9.63803 23.0375 9.44563 22.9846 9.2939 22.8666C9.14217 22.7486 9.04353 22.5752 9.01969 22.3844C8.99585 22.1937 9.04875 22.0013 9.16677 21.8496C9.28478 21.6978 9.45823 21.5992 9.64897 21.5753ZM0 28.7671V30.9247C0 33.1948 1.80516 35 4.07534 35H21.5753C20.4306 33.9889 19.6575 32.5703 19.6575 30.9247V28.7671H0Z" fill="#2ADC65"/>
</svg>
