<svg width="35" height="35" viewBox="0 0 35 35" fill="none" xmlns="http://www.w3.org/2000/svg">
<path d="M3.84896 12.8394C2.83813 12.2174 1.8273 11.6342 0.777588 11.051L3.84896 8.99048V12.8394Z" fill="#2ADC65"/>
<path d="M14.5793 24.464L0.0777561 34.2613C0.038878 34.1058 0 33.9503 0 33.7948V12.4507C5.75396 15.4832 10.6526 19.5265 14.5793 24.464Z" fill="#2ADC65"/>
<path d="M22.5105 3.15884H12.48L16.8343 0.20411C17.2231 -0.0680367 17.7285 -0.0680367 18.1562 0.20411L22.5105 3.15884Z" fill="#2ADC65"/>
<path d="M18.3505 13.3448C18.5449 13.5003 18.6227 13.7724 18.6615 14.0057V14.2001C18.6227 14.5111 18.506 14.861 18.2339 15.0943C17.9617 15.3664 17.6118 15.5219 17.2619 15.5219C16.9509 15.5219 16.6399 15.4442 16.4455 15.2109C15.979 14.7444 16.0567 13.9668 16.601 13.4225C16.912 13.1115 17.2619 12.9949 17.6118 12.9949C17.884 13.0338 18.1561 13.1504 18.3505 13.3448Z" fill="#2ADC65"/>
<path d="M29.1588 4.75293H5.8319C5.63751 4.75293 5.44312 4.90844 5.44312 5.14171V13.8893C9.44756 16.6107 12.9466 19.8765 15.9013 23.6088C15.9402 23.5699 15.9791 23.5699 16.018 23.531C16.9122 22.9479 18.0785 22.9479 19.0116 23.531C19.0504 23.531 19.0893 23.5699 19.1282 23.6088C22.0829 19.8765 25.6208 16.6107 29.5864 13.8893V5.14171C29.5864 4.90844 29.392 4.75293 29.1588 4.75293ZM23.4048 15.25C23.327 15.8332 23.016 16.3386 22.5884 16.6885C22.1607 17.0384 21.6164 17.2328 21.0332 17.2328C20.2945 17.2328 19.6336 16.8829 19.206 16.3775C18.7005 16.844 18.0396 17.1162 17.3398 17.155C17.3009 17.155 17.2621 17.155 17.1843 17.155C16.4456 17.155 15.8236 16.8829 15.3182 16.3775C14.8127 15.8721 14.5406 15.1723 14.5406 14.5113C14.5406 13.7338 14.8516 12.9562 15.4348 12.373C16.3679 11.44 17.6897 11.2067 18.7783 11.751C18.9338 11.5177 19.1671 11.4011 19.4392 11.4011C19.8669 11.4011 20.2168 11.751 20.2168 12.1786V14.9001C20.2168 15.3278 20.5667 15.7166 21.0332 15.7166C21.422 15.7166 21.7719 15.4444 21.8108 15.0556C21.8497 14.8612 21.8497 14.628 21.8497 14.4336C21.8885 12.0231 19.9446 10.0403 17.5342 10.0015C16.329 9.96259 15.2015 10.4291 14.3462 11.2844C13.4909 12.1398 13.0243 13.2672 13.0632 14.4725C13.1021 16.844 15.0849 18.749 17.4176 18.7879C18.0007 18.7879 18.5839 18.6713 19.1671 18.438C19.5559 18.2825 20.0224 18.438 20.2168 18.8657C20.3723 19.2545 20.2168 19.721 19.7891 19.9154C19.0504 20.2264 18.2729 20.3819 17.4564 20.3819H17.4176C14.1907 20.3819 11.547 17.7382 11.4692 14.5113C11.4303 12.8784 12.0524 11.3233 13.2187 10.157C14.3851 8.99064 15.9013 8.36859 17.5731 8.40747C20.8388 8.48523 23.4826 11.1678 23.4437 14.4725C23.4826 14.6668 23.4437 14.9779 23.4048 15.25Z" fill="#2ADC65"/>
<path d="M18.8556 25.3193L33.2016 35H1.78809L16.1341 25.3193L16.8339 24.8528C17.2227 24.5806 17.7281 24.5806 18.1169 24.8528C18.1558 24.8528 18.8556 25.3193 18.8556 25.3193Z" fill="#2ADC65"/>
<path d="M34.2135 11.0511C33.1638 11.5954 32.114 12.2174 31.1421 12.8395V8.95166L34.2135 11.0511Z" fill="#2ADC65"/>
<path d="M34.9909 12.4507V33.7948C34.9909 33.9503 34.952 34.1058 34.9132 34.2613L20.4116 24.464C24.3383 19.5265 29.2369 15.4832 34.9909 12.4507Z" fill="#2ADC65"/>
</svg>
