<svg width="36" height="35" viewBox="0 0 36 35" fill="none" xmlns="http://www.w3.org/2000/svg">
<path d="M13.3198 22.379L16.3679 19.2119C16.7382 18.8269 17.2384 18.6118 17.7762 18.6061C18.3111 18.607 18.8192 18.8051 19.198 19.1822L22.2774 22.2472L32.4484 13.8635C32.4524 13.8604 32.4569 13.8585 32.4608 13.8554L33.4277 13.0585L17.3883 0L1.30322 13.0458L13.3198 22.379ZM11.1883 14.5357L15.7429 10.4556L16.3972 9.89838C15.9857 8.48332 16.369 6.96268 17.4287 5.92249L17.6587 5.68707C17.7047 5.63964 17.7584 5.60041 17.8174 5.5702C17.8165 5.56936 17.8303 5.55806 17.8447 5.54706C17.8749 5.52391 17.9119 5.49568 17.9548 5.46689C17.9859 5.43753 18.02 5.411 18.0565 5.3887C18.1078 5.3568 18.1564 5.32519 18.2035 5.2947C18.3531 5.19731 18.5078 5.09654 18.7057 5.01411C19.1782 4.79196 19.7103 4.67369 20.3073 4.66352C20.7322 4.65506 21.1886 4.72252 21.7046 4.86564C21.9135 4.92378 22.0764 5.08638 22.1328 5.29385C22.1896 5.50133 22.1317 5.72292 21.9807 5.87732L20.5854 7.30226C20.462 7.42788 20.3946 7.5693 20.3683 7.75645L20.3734 8.04212C20.3875 8.0997 20.4025 8.1635 20.4112 8.23773L20.4705 8.35008C20.4934 8.38283 20.5123 8.41557 20.5272 8.44803C20.5445 8.46356 20.5752 8.49037 20.6049 8.5186C20.7751 8.68091 20.9831 8.77265 21.1793 8.77265C21.183 8.77265 21.1864 8.77265 21.19 8.77237C21.3893 8.76898 21.5991 8.6699 21.765 8.50025L23.1603 7.07531C23.3066 6.92683 23.5188 6.86134 23.724 6.90199C23.9293 6.94321 24.0998 7.08463 24.176 7.27771C24.6858 8.56744 24.5003 10.0088 23.6803 11.1356C23.5691 11.3022 23.4248 11.4498 23.2967 11.5805C23.1809 11.6985 23.0796 11.8018 22.9387 11.9051L22.9376 11.9062C22.9173 11.9271 22.8953 11.9463 22.8721 11.9644C22.1272 12.5357 21.2846 12.8332 20.3683 12.8488C20.0073 12.8541 19.6558 12.8149 19.3112 12.7268L18.7808 13.3772L14.8365 18.0164C14.8275 18.0274 14.8176 18.0379 14.8074 18.0483C14.393 18.4712 13.8423 18.6803 13.269 18.6803C12.6285 18.6803 11.9595 18.4195 11.4201 17.9052C10.8987 17.4081 10.5927 16.7349 10.5812 16.0588C10.5713 15.4855 10.7765 14.9543 11.1593 14.5633C11.1689 14.5537 11.1785 14.5444 11.1883 14.5357Z" fill="#2ADC65"/>
<path d="M13.9113 17.2121L18.6185 11.6357C18.7857 11.4308 19.0668 11.3551 19.3161 11.4488C19.6587 11.5776 19.9873 11.636 20.3489 11.6284C20.9798 11.6176 21.5641 11.4147 22.0861 11.0246L22.094 11.0167C22.1222 10.9879 22.1535 10.9616 22.1871 10.9388C22.2549 10.8927 22.3028 10.8445 22.4143 10.7307C22.5061 10.637 22.6105 10.53 22.6568 10.4589C22.663 10.4496 22.6695 10.4403 22.6763 10.4312C23.0407 9.93413 23.2287 9.34925 23.229 8.75844L22.6509 9.34868C22.2543 9.75375 21.7434 9.98183 21.2132 9.99115C20.6797 9.99341 20.1646 9.78932 19.7536 9.39752C19.6486 9.29731 19.5216 9.17565 19.4338 9.01475C19.3993 8.96591 19.3745 8.9168 19.3567 8.86909L19.2602 8.68617C19.2158 8.60262 19.1921 8.51003 19.1902 8.41519L19.1893 8.37539C19.1876 8.36579 19.1834 8.3528 19.1806 8.34038C19.1664 8.28421 19.1456 8.19896 19.1441 8.0948L19.1379 7.7349C19.1374 7.70949 19.1385 7.68437 19.1413 7.65896C19.193 7.18643 19.3818 6.78079 19.7025 6.45279L20.2594 5.88428C19.8662 5.89867 19.5309 5.97658 19.2091 6.12732C19.0911 6.177 18.9988 6.23713 18.8822 6.31306C18.8466 6.33592 18.8105 6.35963 18.7735 6.38306C18.7303 6.42512 18.6809 6.46041 18.6273 6.48779C18.6281 6.48864 18.6143 6.49993 18.5999 6.51094C18.57 6.5338 18.5339 6.56175 18.4915 6.58969L18.3063 6.7791C17.4855 7.58501 17.2461 8.79062 17.687 9.86045C17.7872 10.1032 17.7192 10.3824 17.5185 10.5532L16.5588 11.3701L12.0327 15.4244C11.8467 15.6229 11.8105 15.8668 11.8137 16.0378C11.8196 16.387 11.9923 16.7568 12.2755 17.0269C12.7968 17.524 13.5107 17.6039 13.9113 17.2121Z" fill="#2ADC65"/>
<path d="M17.7984 19.8252C17.7955 19.8252 17.793 19.8255 17.7902 19.8255C17.5878 19.8275 17.3995 19.9085 17.2603 20.0533L14.8384 22.5695L20.7792 22.4837L18.3256 20.0417C18.1848 19.902 17.9979 19.8252 17.7984 19.8252Z" fill="#2ADC65"/>
<path d="M33.9034 16.8778L32.7263 15.2251L23.1265 23.1354L22.6339 23.5413C22.6232 23.5503 22.6108 23.5571 22.5995 23.565C22.591 23.5709 22.5831 23.5769 22.5744 23.5825C22.5309 23.6105 22.4852 23.633 22.4364 23.6494C22.4282 23.6522 22.42 23.6537 22.4118 23.6562C22.359 23.6714 22.3048 23.6819 22.2489 23.6824L13.3905 23.81C13.3873 23.81 13.3845 23.81 13.3814 23.81C13.3156 23.81 13.2521 23.7982 13.1917 23.7787C13.1728 23.7728 13.1567 23.762 13.1384 23.7541C13.0974 23.7366 13.0582 23.7172 13.0221 23.6915C13.0156 23.687 13.0077 23.6853 13.0015 23.6805L2.23311 15.3273L0.621582 16.8349L17.0914 30.3676L33.9034 16.8778Z" fill="#2ADC65"/>
<path d="M18.1652 31.0752L17.4736 31.6302C17.4733 31.6305 17.473 31.6305 17.4728 31.6307C17.3601 31.7214 17.2229 31.7662 17.086 31.7662C17.053 31.7662 17.02 31.7631 16.9872 31.7581C16.9853 31.7578 16.9833 31.7578 16.9816 31.7575C16.952 31.7524 16.9226 31.7442 16.8938 31.7349C16.889 31.7335 16.8842 31.7329 16.8794 31.7312C16.8492 31.7205 16.8201 31.707 16.7916 31.6914C16.7888 31.6897 16.7854 31.6889 16.7826 31.6872C16.7515 31.6697 16.7216 31.6494 16.6934 31.6262L1.44019 19.1252L0 20.3159L17.3342 35L35.0025 20.7063L33.0009 19.1741L18.1652 31.0752Z" fill="#2ADC65"/>
</svg>
