<svg width="39" height="35" viewBox="0 0 39 35" fill="none" xmlns="http://www.w3.org/2000/svg">
<path d="M7.73808 17.0704L7.04736 17.5115L7.85995 18.0281L8.37073 17.703L7.73808 17.0704ZM22.1037 12.009H20.821V12.2238L23.874 14.1682V13.1409L22.1037 12.009ZM30.4155 17.32L29.7828 17.9526L29.9047 18.0281L30.7173 17.5115L30.4155 17.32ZM15.9279 12.009H15.6551L14.6162 12.6765V13.7039L16.4503 12.5314L15.9279 12.009Z" fill="#2ADC65"/>
<path d="M31.9659 34.1934V18.5448C31.9659 18.3881 31.8788 18.2429 31.7395 18.1617C31.6002 18.0862 31.4319 18.092 31.2984 18.1791L22.564 23.6825L31.9659 34.1934Z" fill="#2ADC65"/>
<path d="M15.1361 23.6526L6.46536 18.1791C6.33184 18.092 6.16353 18.0862 6.02423 18.1617C5.88493 18.2429 5.79785 18.3881 5.79785 18.5448V34.2942L15.1361 23.6526Z" fill="#2ADC65"/>
<path d="M6.33911 34.9998H31.5189L21.8166 24.1531L18.8712 26.0089L15.8837 24.123L6.33911 34.9998Z" fill="#2ADC65"/>
<path d="M37.583 6.65747H25.1792C24.9412 6.65747 24.7439 6.85487 24.7439 7.09279V15.4975C24.7439 15.7355 24.9412 15.9328 25.1792 15.9328H27.4603V17.9875C27.4603 18.1616 27.5648 18.3242 27.7273 18.388C27.7853 18.4112 27.8376 18.4228 27.8956 18.4228C28.0059 18.4228 28.122 18.3764 28.2033 18.2951L30.5714 15.9328H37.583C37.821 15.9328 38.0183 15.7355 38.0183 15.4975V7.09279C38.0183 6.85487 37.821 6.65747 37.583 6.65747ZM35.7811 13.777H26.7552C26.5149 13.777 26.3199 13.582 26.3199 13.3416C26.3199 13.1013 26.5149 12.9063 26.7552 12.9063H35.7811C36.0214 12.9063 36.2164 13.1013 36.2164 13.3416C36.2164 13.582 36.0214 13.777 35.7811 13.777ZM35.7811 11.9044H26.7552C26.5149 11.9044 26.3199 11.7095 26.3199 11.4691C26.3199 11.2288 26.5149 11.0338 26.7552 11.0338H35.7811C36.0214 11.0338 36.2164 11.2288 36.2164 11.4691C36.2164 11.7095 36.0214 11.9044 35.7811 11.9044ZM35.7811 10.0316H26.7552C26.5149 10.0316 26.3199 9.83666 26.3199 9.59633C26.3199 9.35599 26.5149 9.161 26.7552 9.161H35.7811C36.0214 9.161 36.2164 9.35599 36.2164 9.59633C36.2164 9.83666 36.0214 10.0316 35.7811 10.0316Z" fill="#2ADC65"/>
<path d="M10.3738 6.65607C10.8668 6.65607 11.2664 6.25644 11.2664 5.76346C11.2664 5.27049 10.8668 4.87085 10.3738 4.87085C9.88084 4.87085 9.4812 5.27049 9.4812 5.76346C9.4812 6.25644 9.88084 6.65607 10.3738 6.65607Z" fill="#2ADC65"/>
<path d="M19.739 6.65607C20.232 6.65607 20.6317 6.25644 20.6317 5.76346C20.6317 5.27049 20.232 4.87085 19.739 4.87085C19.2461 4.87085 18.8464 5.27049 18.8464 5.76346C18.8464 6.25644 19.2461 6.65607 19.739 6.65607Z" fill="#2ADC65"/>
<path d="M15.0564 6.65607C15.5494 6.65607 15.949 6.25644 15.949 5.76346C15.949 5.27049 15.5494 4.87085 15.0564 4.87085C14.5635 4.87085 14.1638 5.27049 14.1638 5.76346C14.1638 6.25644 14.5635 6.65607 15.0564 6.65607Z" fill="#2ADC65"/>
<path d="M22.8351 0H7.68581C7.44785 0 7.25049 0.197397 7.25049 0.435323V10.7032C7.25049 10.9412 7.44785 11.1385 7.68581 11.1385H16.2878L19.2074 14.058C19.2886 14.1394 19.4047 14.1858 19.515 14.1858C19.573 14.1858 19.6253 14.1741 19.6833 14.151C19.8458 14.0871 19.9503 13.9245 19.9503 13.7504V11.1385H22.8351C23.073 11.1385 23.2704 10.9412 23.2704 10.7032V0.435323C23.2704 0.197397 23.073 0 22.8351 0ZM10.373 7.52661C9.40064 7.52661 8.60963 6.7356 8.60963 5.76321C8.60963 4.7911 9.40064 4.0001 10.373 4.0001C11.3454 4.0001 12.1364 4.7911 12.1364 5.76321C12.1364 6.7356 11.3454 7.52661 10.373 7.52661ZM15.0562 7.52661C14.0838 7.52661 13.2928 6.7356 13.2928 5.76321C13.2928 4.7911 14.0838 4.0001 15.0562 4.0001C16.0285 4.0001 16.8196 4.7911 16.8196 5.76321C16.8196 6.7356 16.0285 7.52661 15.0562 7.52661ZM19.739 7.52661C18.7669 7.52661 17.9759 6.7356 17.9759 5.76321C17.9759 4.7911 18.7669 4.0001 19.739 4.0001C20.7114 4.0001 21.5024 4.7911 21.5024 5.76321C21.5024 6.7356 20.7114 7.52661 19.739 7.52661Z" fill="#2ADC65"/>
<path d="M7.6849 12.0094C7.29602 12.0094 6.94196 11.8353 6.70397 11.5624C6.63432 11.6088 6.55305 11.6379 6.46601 11.6379H4.72471C4.48091 11.6379 4.28939 11.4405 4.28939 11.2026C4.28939 10.9588 4.48091 10.7672 4.72471 10.7672H6.37893V9.57732H5.9436C5.70564 9.57732 5.50828 9.37999 5.50828 9.142C5.50828 8.90407 5.70564 8.70667 5.9436 8.70667H6.37893V6.22241H0.435323C0.197362 6.22241 0 6.41981 0 6.65774V15.3816C0 15.6196 0.197362 15.8169 0.435323 15.8169H7.71391L10.1807 18.278C10.262 18.3593 10.3781 18.4057 10.4884 18.4057C10.5464 18.4057 10.5987 18.3941 10.6567 18.3709C10.8192 18.307 10.9237 18.1445 10.9237 17.9704V15.8169H13.3093C13.5473 15.8169 13.7446 15.6196 13.7446 15.3816V12.0094H7.6849ZM2.0257 9.142C2.0257 8.90407 2.22306 8.70667 2.46102 8.70667H4.20231C4.44031 8.70667 4.63764 8.90407 4.63764 9.142C4.63764 9.37999 4.44031 9.57732 4.20231 9.57732H2.46102C2.22306 9.57732 2.0257 9.37999 2.0257 9.142ZM2.3101 11.2026C2.3101 10.9588 2.50747 10.7672 2.74543 10.7672H2.98342C3.22138 10.7672 3.41875 10.9588 3.41875 11.2026C3.41875 11.4405 3.22138 11.6379 2.98342 11.6379H2.74543C2.50747 11.6379 2.3101 11.4405 2.3101 11.2026ZM4.70728 13.5824H2.96599C2.72803 13.5824 2.53067 13.385 2.53067 13.1471C2.53067 12.9032 2.72803 12.7117 2.96599 12.7117H4.70728C4.94528 12.7117 5.14261 12.9032 5.14261 13.1471C5.14261 13.385 4.94528 13.5824 4.70728 13.5824ZM8.18987 13.5824H6.44858C6.21062 13.5824 6.01325 13.385 6.01325 13.1471C6.01325 12.9032 6.21062 12.7117 6.44858 12.7117H8.18987C8.42787 12.7117 8.62519 12.9032 8.62519 13.1471C8.62519 13.385 8.42787 13.5824 8.18987 13.5824ZM11.6725 13.5824H9.93116C9.6932 13.5824 9.49584 13.385 9.49584 13.1471C9.49584 12.9032 9.6932 12.7117 9.93116 12.7117H11.6725C11.9104 12.7117 12.1078 12.9032 12.1078 13.1471C12.1078 13.385 11.9104 13.5824 11.6725 13.5824Z" fill="#2ADC65"/>
</svg>
