<svg xmlns="http://www.w3.org/2000/svg" width="52" height="32" fill="none" viewBox="0 0 52 32"><path fill="#2ADC65" d="M25.9964 0C27.4152 0 28.8021 0.420712 29.9818 1.20893C31.1614 1.99716 32.0809 3.11749 32.6238 4.42826C33.1667 5.73902 33.3088 7.18135 33.032 8.57285C32.7552 9.96436 32.072 11.2425 31.0688 12.2458C30.0656 13.249 28.7874 13.9322 27.3959 14.209C26.0044 14.4857 24.5621 14.3437 23.2513 13.8007C21.9405 13.2578 20.8202 12.3384 20.032 11.1587C19.2438 9.97906 18.8231 8.59216 18.8231 7.17339C18.8231 5.27089 19.5788 3.44631 20.9241 2.10104C22.2694 0.755766 24.0939 0 25.9964 0ZM3.24956 7.39274C3.24956 8.53193 3.58736 9.64553 4.22026 10.5927C4.85316 11.5399 5.75273 12.2782 6.8052 12.7141C7.85767 13.1501 9.01578 13.2641 10.1331 13.0419C11.2504 12.8197 12.2767 12.2711 13.0822 11.4656C13.8877 10.66 14.4363 9.63373 14.6586 8.51643C14.8808 7.39913 14.7667 6.24102 14.3308 5.18854C13.8948 4.13607 13.1566 3.23651 12.2094 2.60361C11.2622 1.97071 10.1486 1.6329 9.00939 1.6329C7.48179 1.6329 6.01675 2.23974 4.93657 3.31992C3.85639 4.4001 3.24956 5.86514 3.24956 7.39274ZM48.7433 7.39274C48.7433 6.25355 48.4055 5.13994 47.7726 4.19274C47.1397 3.24554 46.2402 2.50729 45.1877 2.07134C44.1352 1.63539 42.9771 1.52133 41.8598 1.74357C40.7425 1.96582 39.7162 2.51439 38.9107 3.31992C38.1052 4.12545 37.5566 5.15175 37.3343 6.26905C37.1121 7.38635 37.2262 8.54446 37.6621 9.59693C38.0981 10.6494 38.8363 11.549 39.7835 12.1819C40.7307 12.8148 41.8443 13.1526 42.9835 13.1526C43.7402 13.1536 44.4897 13.0054 45.189 12.7163C45.8883 12.4272 46.5236 12.003 47.0587 11.4679C47.5938 10.9329 48.018 10.2975 48.3071 9.5982C48.5962 8.8989 48.7444 8.14943 48.7433 7.39274ZM16.6134 17.4907C15.1592 15.9634 12.6002 14.7205 9.00127 14.7205C3.1277 14.7205 0 18.0188 0 20.4803V25.0703C0 25.3806 0.123251 25.6781 0.342638 25.8975C0.562026 26.1169 0.859579 26.2402 1.16984 26.2402H12.1046V24.331C12.1046 21.8695 13.7294 19.3024 16.6134 17.4907ZM42.9916 14.7205C39.3927 14.7205 36.8337 15.9634 35.3795 17.4907C38.2635 19.3024 39.8883 21.8695 39.8883 24.331V26.2402H50.8231C50.9767 26.2402 51.1288 26.2099 51.2707 26.1511C51.4127 26.0923 51.5416 26.0062 51.6503 25.8975C51.7589 25.7889 51.8451 25.6599 51.9038 25.518C51.9626 25.3761 51.9929 25.2239 51.9929 25.0703V20.4803C51.9929 18.0188 48.8652 14.7205 42.9916 14.7205ZM25.9964 16.6621C17.9944 16.6621 13.7294 21.0409 13.7294 24.331V30.8302C13.7294 31.1404 13.8526 31.438 14.072 31.6574C14.2914 31.8767 14.589 32 14.8992 32H37.0937C37.4039 32 37.7015 31.8767 37.9209 31.6574C38.1403 31.438 38.2635 31.1404 38.2635 30.8302V24.331C38.2635 21.0409 33.9985 16.6621 25.9964 16.6621Z"/></svg>