<svg width="33" height="35" viewBox="0 0 33 35" fill="none" xmlns="http://www.w3.org/2000/svg">
<path d="M26.1368 22.5522C24.9078 22.5506 23.7061 22.9146 22.6846 23.5979L12.4194 17.9549C12.4194 17.8055 12.4442 17.6561 12.4442 17.5026C12.4424 17.1661 12.4133 16.8303 12.3571 16.4985L22.2282 11.0712C23.3718 11.9923 24.8042 12.4793 26.2722 12.4462C27.7402 12.4131 29.1492 11.8621 30.2502 10.8905C31.3512 9.91894 32.0732 8.58939 32.2886 7.13691C32.504 5.68443 32.1989 4.20256 31.4273 2.95328C30.6557 1.704 29.4672 0.767756 28.072 0.310069C26.6768 -0.147619 25.1647 -0.0972766 23.803 0.452196C22.4413 1.00167 21.3178 2.01488 20.6309 3.31272C19.9441 4.61056 19.7383 6.10944 20.0498 7.54437L10.3696 12.8637C9.45668 12.0484 8.32361 11.5204 7.11213 11.3457C5.90066 11.171 4.66457 11.3574 3.55849 11.8816C2.45241 12.4058 1.52544 13.2445 0.89354 14.2928C0.26164 15.341 -0.0471372 16.5524 0.00583239 17.7752C0.058802 18.9981 0.471166 20.1782 1.19134 21.1679C1.91152 22.1576 2.90754 22.913 4.0548 23.3396C5.20207 23.7661 6.44965 23.845 7.64148 23.5662C8.83331 23.2874 9.91648 22.6634 10.7555 21.7722L20.1951 26.9587C19.8125 28.2117 19.8351 29.5535 20.2596 30.7929C20.6841 32.0323 21.4889 33.1061 22.5593 33.8614C23.6297 34.6167 24.9112 35.015 26.2212 34.9996C27.5312 34.9841 28.8029 34.5556 29.8552 33.7753C30.9074 32.9949 31.6866 31.9023 32.0818 30.6533C32.4769 29.4042 32.4678 28.0623 32.0558 26.8187C31.6437 25.5751 30.8498 24.4932 29.787 23.7272C28.7243 22.9611 27.4469 22.5499 26.1368 22.5522Z" fill="#2ADC65"/>
</svg>
