<svg xmlns="http://www.w3.org/2000/svg" width="30" height="35" fill="none" viewBox="0 0 30 35"><path fill="#2ADC65" fill-rule="evenodd" d="M13.127 21.7705V10.0732C11.692 10.6318 10.2307 11.132 8.75635 11.571C8.84822 15.4253 10.3926 19.0347 13.127 21.7705Z" clip-rule="evenodd"/><path fill="#2ADC65" fill-rule="evenodd" d="M16.0417 25.2919C16.0417 25.881 15.6858 26.4133 15.1419 26.6394C14.961 26.7138 14.7715 26.7502 14.5833 26.7502C14.2042 26.7502 13.8308 26.6015 13.5523 26.3229L11.0673 23.8365C7.69125 20.4633 5.83333 15.9775 5.83333 11.2029V10.4723C5.83333 9.81604 6.27229 9.24146 6.90375 9.06792C9.31729 8.40146 11.7031 7.55854 14.0015 6.55813C14.4521 6.36271 14.9727 6.40646 15.3825 6.67479C15.7937 6.94458 16.0417 7.40396 16.0417 7.89542V25.2919ZM27.9942 4.40271L27.0973 4.22333C22.979 3.39937 18.989 2.03 15.2352 0.153125C14.8254 -0.0510417 14.3412 -0.0510417 13.9315 0.153125C10.1777 2.03 6.18771 3.39937 2.06938 4.22333L1.1725 4.40271C0.491458 4.53979 0 5.13771 0 5.83333V11.2029C0 17.535 2.46458 23.4865 6.94167 27.9621L13.5523 34.5727C13.8367 34.8571 14.21 35 14.5833 35C14.9567 35 15.33 34.8571 15.6144 34.5727L22.225 27.9621C26.7021 23.4865 29.1667 17.535 29.1667 11.2029V5.83333C29.1667 5.13771 28.6752 4.53979 27.9942 4.40271Z" clip-rule="evenodd"/></svg>